<svg width="1440" height="194" viewBox="0 0 1440 194" fill="none" xmlns="http://www.w3.org/2000/svg">
<g clip-path="url(#clip0_291_7400)">
<path d="M520.986 87.7512H569.699C570.261 86.9637 570.824 86.1762 571.386 85.3887H519.299C519.861 86.1762 520.424 86.9637 520.986 87.7512Z" fill="#EF8C48"/>
<path d="M527.626 94.0496H563.176C563.401 93.9371 563.626 93.7121 563.851 93.5996H526.951C527.176 93.7121 527.401 93.9371 527.626 94.0496Z" fill="#EF8C48"/>
<path d="M545.401 36.7871C528.414 36.7871 514.689 50.5121 514.576 67.4996H576.226C576.114 50.5121 562.389 36.7871 545.401 36.7871Z" fill="#EF8C48"/>
<path d="M514.576 68.9629C514.576 71.1004 514.801 73.1254 515.251 75.1504H575.551C576.001 73.1254 576.226 71.1004 576.226 68.9629H514.576Z" fill="#EF8C48"/>
<path d="M517.276 81.4488H573.526C574.089 80.0988 574.651 78.6363 575.101 77.1738H515.701C516.151 78.6363 516.601 80.0988 517.276 81.4488Z" fill="#EF8C48"/>
<path d="M647.211 190.237L641.474 185.737L639.561 183.15L637.649 182.025H635.286L634.049 179.325V176.175C634.049 176.175 631.349 174.712 630.899 174.6C630.449 174.487 630.786 172.8 630.786 172.8L632.024 170.775V168.525L624.711 163.35V157.95L622.124 155.925H620.661V152.55L618.411 151.087L619.649 148.95L615.599 145.35L614.699 145.687L613.461 144.9L612.674 145.125L611.324 145.575L610.199 145.125V144L609.411 142.762L608.511 142.425L607.499 142.762L606.599 142.875V141.975L605.811 141.75L605.249 140.625L604.461 140.062L605.249 139.275L604.799 138.037L602.661 137.7L600.974 136.462L599.849 136.912L598.274 136.35L597.374 135.562L596.249 135.337L596.586 134.55L597.261 133.987L596.249 132.975L594.899 132.075L593.549 131.625L593.774 131.062L594.899 131.175L594.224 130.05L591.861 128.812L592.199 128.25L591.974 127.237L590.849 126.9L589.724 126.562L589.611 125.55L588.599 124.987L587.699 125.212L586.461 125.55C586.461 125.55 584.886 123.75 584.661 123.75C584.436 123.75 584.211 122.512 584.211 122.512L583.649 121.95L581.849 120.375L582.074 119.137L581.174 118.35L580.386 118.012L578.136 117.562V116.775L577.349 116.437L575.999 115.875L575.549 114.75L574.761 113.962L572.849 113.287L572.286 112.05L571.611 111.037L571.949 110.025L572.061 108.9L570.261 107.1L569.474 106.987V105.975L569.024 104.85L568.011 104.062L565.986 103.275L565.086 102.15L563.736 101.362L562.724 101.25L561.824 101.475L561.149 102.262H560.699L560.136 100.575L560.474 99.8996L559.686 98.6621L559.461 97.6496L559.911 96.5246L559.011 95.7371L558.561 94.7246L558.336 93.9371L556.649 93.4871V91.2371L556.311 89.8871L556.874 89.6621L556.649 88.0871L555.411 87.1871L551.699 85.8371L550.574 85.6121L548.886 84.8246L547.536 84.5996L546.524 83.8121L545.511 82.7996L545.399 81.3371L544.836 79.7621L545.174 79.0871L545.736 78.0746L545.286 76.9496L543.936 75.3746L544.499 74.4746L544.836 73.7996L544.386 72.5621L543.599 71.9996L542.024 71.3246L540.786 70.5371H537.299L536.061 70.3121L535.724 69.2996V67.9496L535.161 67.0496V64.3496L535.499 64.2371V62.8871L535.724 62.6621V57.4871L536.174 57.1496L538.536 57.0371L539.211 56.2496L539.436 55.7996L540.336 55.9121L541.236 55.6871V55.1246L540.449 54.7871L539.436 54.8996L537.299 54.7871L535.836 54.4496L534.374 53.7746H534.486V52.4246L534.149 51.7496L533.811 51.4121L533.361 51.6371L533.024 52.1996L532.799 53.7746H533.024L531.224 54.4496L529.199 54.6746H527.849L527.061 54.2246L526.049 54.6746V55.1246L526.836 55.5746H528.299L529.086 56.8121H529.874L531.674 57.1496L531.899 60.5246L532.124 62.0996V67.1621L531.449 68.2871V69.5246H531.111L530.436 69.8621V70.7621H529.874L528.861 70.9871L527.849 70.5371L527.174 70.9871L526.499 71.6621L526.049 72.6746L524.586 73.9121L524.136 74.4746L523.011 74.8121L522.449 75.3746V76.1621L522.111 76.3871L521.324 76.6121L521.099 77.3996L521.661 77.9621V78.7496L521.099 79.1996V79.7621L520.649 80.3246L520.311 80.7746L519.411 80.3246H518.399L517.611 81.1121L516.261 81.4496L515.136 82.6871L514.124 82.2371L513.336 82.6871L512.999 83.8121L512.549 84.8246L512.099 85.3871V86.2871L511.199 86.6246L510.749 87.1871V88.4246L510.299 89.0996V89.8871L509.286 89.3246L508.949 89.6621L508.611 90.2246L507.599 90.7871V91.3496L506.586 91.6871L506.249 92.3621V94.1621L505.011 94.3871L505.236 95.1746L503.999 96.4121L502.874 97.3121L502.086 98.0996L502.761 98.3246L502.311 98.8871L502.086 99.4496L501.861 100.687L502.311 101.25V102.262L501.861 102.712L501.186 103.837L500.624 104.062H499.836L499.274 104.737V105.862L498.261 106.2V108.225L497.924 108.787L497.699 109.575L497.249 110.25V111.937L497.699 112.387L497.249 113.287L496.799 114.412L496.461 115.762V118.012L496.236 118.912L496.574 120.487L496.236 122.287L496.011 123.525L495.786 127.912L495.224 129.037V129.825L494.661 130.05V131.062L493.986 131.737L493.761 133.2L493.986 134.212L493.761 135.112L493.536 135.787L493.199 137.137L492.749 138.262L492.186 138.825L491.961 140.175V141.187L491.174 142.425L490.386 145.012L489.936 147.15L489.149 149.062L488.699 151.312L488.249 153.675L487.574 156.037L487.011 158.287L486.449 160.875L486.111 163.8L485.549 166.05L485.099 168.412L484.874 170.662L484.311 171.9L483.524 173.25V175.612L482.849 176.175V177.975L482.174 178.2L481.949 179.1L482.174 179.887L481.724 180.562L481.386 181.575V182.475C481.611 185.062 481.836 188.212 480.486 190.575C479.924 191.587 479.136 192.375 478.236 193.162H658.911L647.211 190.237Z" fill="#2E5E5E"/>
<path d="M472.837 190.35C474.975 189.112 475.988 188.212 476.1 185.85H475.087L476.1 185.062C476.1 184.387 475.988 182.925 475.875 182.137C475.65 182.137 475.538 182.138 475.312 182.025C474.637 181.913 473.962 181.575 473.512 181.012C472.5 179.887 472.5 178.2 472.05 176.738C471.938 176.513 471.825 176.175 471.825 175.95L470.25 176.287L428.175 164.475V165.825L429.975 168.637L429.413 175.275L432.113 178.312L432 179.887L427.95 179.55V180.45L431.55 182.812L425.925 185.738H420.3V183.262H423.225V175.5H420.3V170.325H423.225V163.463H420.3V159.863H422.887V153.787H421.65V153.225H422.212V148.275H395.438V153.225H396V153.787H394.762V159.863H397.35V163.463H394.425V170.325H397.35V175.5H394.425V183.262H397.35V185.738H389.925V138.375L384.863 137.475V136.912L387.562 136.35V135.9L379.35 134.888L372.825 136.125V136.463L375.075 136.8V137.362L370.125 138.375V185.738H365.175V150.637H364.5V151.2H363.938V141.075H362.475V136.237H362.25V135H357.525V136.237H357.188V141.075H355.725V151.2H355.163V150.637H354.488V183.375C351.225 177.188 344.813 165.037 341.55 158.85C341.55 158.775 341.55 158.775 341.55 158.85C341.325 158.4 339.637 155.587 339.525 154.125H338.175V154.688L333.337 154.575V153.787H327.938V154.688L323.1 154.8V154.238H321.75C321.637 155.7 320.063 158.513 319.725 158.963C316.575 164.925 310.388 176.625 307.125 182.925V138.037H294.413V139.05H297.337V141.975H305.775V185.4C305.775 185.513 305.663 185.625 305.663 185.738H305.212V142.537H294.413V185.738H292.613V142.537H281.812V185.738H281.25V141.975H289.688V139.05H292.613V138.037H279.9V174.713C255.6 171.675 230.963 171.562 206.55 174.6V174.488H206.213L199.125 162.9L193.387 156.713V142.537L200.025 141.3V140.963L191.363 141.638L183.375 140.963V141.3L189.562 142.65H189.9V153.787L185.963 150.525L179.325 147.6L174.15 142.875L168.863 138.487L166.5 137.25L161.438 135.9H157.05L156.6 136.013C142.425 136.125 126.787 133.313 111.037 127.463C111.15 127.463 111.263 127.35 111.263 127.237C111.375 127.012 111.262 126.787 111.037 126.675H110.7L110.138 126.45C110.138 126.338 110.025 126.225 109.912 126.112C109.8 126 109.575 126.112 109.463 126.225L108.9 126C108.9 125.887 108.787 125.775 108.675 125.662H108.225L107.662 125.438C107.662 125.325 107.55 125.212 107.438 125.1C107.325 124.987 107.1 125.1 106.987 125.213L106.425 124.987C106.425 124.875 106.313 124.763 106.2 124.763C105.975 124.65 105.75 124.762 105.638 124.987V125.325C91.575 119.813 78.975 112.612 68.4 104.625L67.725 102.938H65.3625L63.45 104.625L58.8375 106.312L54.3375 110.588L47.3625 118.8L42.8625 128.925L38.25 140.175L33.75 151.425L31.1625 155.812L28.8 161.55L24.75 167.625L22.1625 178.537L17.2125 185.738L7.875 189.45L0 193.162H466.875C468.9 192.375 470.925 191.362 472.837 190.35ZM111.15 126.9C111.263 126.9 111.263 127.125 111.15 127.125C110.925 127.125 111.038 126.9 111.15 126.9ZM110.138 126.9L110.7 127.125V127.237C110.475 127.125 110.25 127.125 110.025 127.013L110.138 126.9ZM109.912 126.338C110.025 126.338 110.025 126.562 109.912 126.562C109.8 126.562 109.8 126.338 109.912 126.338ZM108.675 125.888C108.787 125.888 108.787 126.112 108.675 126.112C108.562 126.112 108.562 125.888 108.675 125.888ZM109.013 127.013L108.338 127.125L107.775 126.562C108.113 126.675 108.563 126.788 109.013 127.013ZM108 134.325V132.75H109.575V134.325H108ZM109.688 134.775C109.688 135.225 109.688 135.675 109.575 136.237H108V134.888C108.562 134.775 109.125 134.775 109.688 134.775ZM106.312 131.625L107.325 129.15H108.562L109.575 131.737C108.563 131.625 107.438 131.512 106.312 131.625ZM106.088 134.325C106.088 133.763 106.088 133.312 106.2 132.75H107.888V134.325H106.088ZM107.775 134.775V136.125H106.088V134.662C106.65 134.775 107.213 134.775 107.775 134.775ZM107.775 128.475L108.112 127.35L108.45 127.463L108.562 128.475H107.775ZM107.438 125.438C107.55 125.438 107.55 125.662 107.438 125.662C107.325 125.662 107.325 125.438 107.438 125.438ZM106.537 125.438L106.987 125.662V125.775C106.875 125.663 106.65 125.662 106.537 125.55C106.537 125.55 106.425 125.55 106.425 125.438C106.425 125.55 106.537 125.55 106.537 125.438ZM106.312 124.987C106.425 124.987 106.425 125.213 106.312 125.213C106.087 125.213 106.087 124.987 106.312 124.987ZM153 137.25H148.613L145.575 138.938L141.975 142.2L139.725 143.325H133.088L128.475 145.463L123.75 148.162L119.138 150.637L114.525 153.675L112.05 155.363L108.225 160.2L104.85 165.262L103.95 166.05L102.825 163.463L96.1875 155.363L90.9 143.888V139.388L87.975 132.862L86.0625 127.575L81.5625 118.912L77.625 114.862L72.3375 109.8L69.4125 106.2L68.9625 105.188C79.65 113.175 92.3625 120.375 106.537 125.888C106.762 126 106.875 126 107.1 126.112L108 127.013L107.438 126.787L107.325 126.9L107.888 127.125L107.55 128.362H107.1V129.037L105.638 131.625C105.3 131.625 104.963 131.737 104.625 131.737C104.062 131.85 103.275 132.637 103.162 133.312C103.05 133.988 103.05 134.662 103.162 135.225C103.275 136.012 103.95 136.8 104.625 136.912C106.875 137.362 109.125 137.363 111.375 137.025C111.713 137.025 112.05 136.8 112.275 136.463C112.5 136.125 112.725 135.788 112.838 135.45C112.95 134.775 112.95 134.1 112.838 133.537C112.838 133.2 112.613 132.863 112.388 132.525C112.163 132.188 111.712 131.962 111.487 131.85C111.15 131.737 110.812 131.737 110.475 131.737L109.125 129.15V128.475H108.787V127.575L109.35 127.8L109.463 127.688L108.9 127.463L110.25 127.35C126.113 133.312 141.863 136.237 156.15 136.35L153 137.25ZM105.75 134.325H104.175C104.175 133.763 104.287 133.312 104.287 132.75H105.75C105.863 133.2 105.75 133.763 105.75 134.325ZM105.862 136.125H104.4C104.288 135.675 104.287 135.112 104.287 134.662H105.862C105.75 135.225 105.75 135.675 105.862 136.125ZM103.95 134.325H103.275C103.275 133.988 103.275 133.762 103.388 133.425C103.388 133.2 103.5 132.975 103.725 132.75H104.175C104.062 133.2 103.95 133.763 103.95 134.325ZM104.062 136.125H103.612C103.5 135.9 103.388 135.675 103.275 135.45V134.662H103.95C103.95 135.112 104.062 135.562 104.062 136.125ZM110.025 134.775H111.713C111.713 135.225 111.6 135.675 111.6 136.237H110.025C109.913 135.675 109.913 135.225 110.025 134.775ZM109.912 132.75H111.487C111.6 133.312 111.6 133.875 111.6 134.325H109.912C110.025 133.875 110.025 133.312 109.912 132.75ZM111.938 134.775H112.612C112.612 135 112.613 135.225 112.5 135.562C112.5 135.788 112.387 136.012 112.162 136.237H111.713C111.825 135.787 111.825 135.225 111.938 134.775ZM111.825 132.862H112.275C112.388 133.087 112.5 133.312 112.612 133.537V134.438H111.938C111.938 133.875 111.825 133.312 111.825 132.862ZM192.938 156.037L190.912 154.35V142.65H192.938V156.037ZM210.488 176.738L209.812 176.512C209.7 176.175 209.812 175.725 210.262 175.725C210.937 175.725 210.938 176.513 210.488 176.738ZM214.762 181.238L214.537 180.675L214.425 180.225L213.637 180.113L213.075 179.775L212.625 179.1L212.4 178.537L211.838 178.312L211.162 177.525C211.387 176.625 212.063 175.95 212.963 175.838C213.975 175.725 214.875 176.625 214.875 177.75C214.762 178.875 214.762 180 214.762 181.238ZM215.325 176.4C214.65 176.4 214.65 175.388 215.325 175.275C216 175.275 216 176.4 215.325 176.4ZM216.787 185.85L216.562 185.625V185.287L216.225 184.95V183.6C216.45 182.925 217.013 182.475 217.8 182.475C218.7 182.475 219.488 183.263 219.488 184.275V185.85H216.787ZM215.887 181.35V177.525C215.887 176.4 216.788 175.388 217.8 175.275C218.813 175.163 219.713 176.063 219.713 177.3V181.125C218.475 181.238 217.237 181.35 215.887 181.35ZM220.5 176.062C220.387 176.062 220.388 176.175 220.275 176.175C219.713 176.175 219.6 175.5 219.938 175.162C220.05 175.05 220.163 175.05 220.275 175.05C220.838 174.938 220.95 175.725 220.5 176.062ZM221.4 185.85V184.162C221.4 183.15 222.075 182.363 222.975 182.25C223.875 182.25 224.55 183.15 224.55 184.162V185.85H221.4ZM221.062 181.125V177.188C221.062 176.062 221.85 175.05 222.863 174.938C223.875 174.938 224.662 175.837 224.662 177.075V181.012C223.537 181.125 222.3 181.125 221.062 181.125ZM225.45 175.838C224.775 175.838 224.775 174.713 225.45 174.713C226.125 174.6 226.125 175.725 225.45 175.838ZM226.35 185.85V184.162C226.35 183.15 227.137 182.25 228.037 182.25C228.937 182.25 229.725 183.15 229.725 184.162V185.85H226.35ZM226.125 181.012V176.963C226.125 175.725 227.025 174.713 228.037 174.713C229.05 174.713 229.95 175.612 229.95 176.85V180.9C228.6 181.013 227.363 181.012 226.125 181.012ZM230.512 175.613C229.837 175.613 229.837 174.488 230.512 174.375C231.187 174.375 231.187 175.613 230.512 175.613ZM231.3 185.85V184.162C231.3 183.037 232.088 182.137 232.988 182.137C233.888 182.137 234.675 183.038 234.675 184.05V185.738H231.3V185.85ZM231.075 181.012V176.963C231.075 175.725 231.975 174.712 232.988 174.6C234 174.6 234.9 175.612 234.9 176.85V180.9C233.55 180.9 232.312 180.9 231.075 181.012ZM235.463 175.5C234.788 175.5 234.788 174.262 235.463 174.262C236.138 174.262 236.138 175.5 235.463 175.5ZM236.25 185.85V184.05C236.25 182.925 237.037 182.025 237.938 182.025C238.838 182.025 239.625 182.925 239.625 184.05V185.85H236.25ZM236.025 180.9V176.738C236.025 175.5 236.925 174.488 237.938 174.375C238.95 174.375 239.85 175.387 239.85 176.625V180.787C238.612 180.9 237.263 180.9 236.025 180.9ZM240.412 175.387C239.737 175.387 239.737 174.15 240.412 174.15C241.087 174.15 241.087 175.387 240.412 175.387ZM244.575 185.85H241.2V184.05C241.2 182.925 241.987 182.025 242.887 182.025C243.787 182.025 244.575 182.925 244.575 184.05V185.85ZM244.8 180.9H240.975V176.738C240.975 175.5 241.875 174.488 242.887 174.488C243.9 174.488 244.8 175.5 244.8 176.738V180.9ZM245.363 175.387C244.688 175.387 244.688 174.15 245.363 174.15C246.038 174.263 246.038 175.387 245.363 175.387ZM249.525 185.85H246.15V184.05C246.15 182.925 246.938 182.025 247.838 182.025C248.738 182.025 249.525 182.925 249.525 184.05V185.85ZM249.75 180.9H245.925V176.738C245.925 175.5 246.825 174.488 247.838 174.488C248.85 174.488 249.75 175.5 249.75 176.85V180.9ZM250.425 175.5C249.75 175.5 249.75 174.262 250.425 174.262C250.988 174.375 250.988 175.5 250.425 175.5ZM254.475 185.85H251.1V184.162C251.1 183.037 251.887 182.137 252.787 182.25C253.687 182.25 254.475 183.15 254.475 184.275V185.85ZM254.812 181.012H250.988V176.963C250.988 175.725 251.888 174.713 252.9 174.713C253.913 174.713 254.812 175.837 254.812 177.075V181.012ZM255.375 175.613C254.7 175.613 254.7 174.375 255.375 174.375C256.05 174.488 256.05 175.613 255.375 175.613ZM259.537 185.85H256.162V184.162C256.162 183.037 256.95 182.25 257.85 182.25C258.75 182.25 259.537 183.15 259.537 184.162V185.85ZM259.762 181.012C258.525 181.012 257.175 181.013 255.938 180.9V176.85C255.938 175.612 256.837 174.6 257.85 174.713C258.862 174.713 259.762 175.838 259.762 176.963V181.012ZM260.213 175.838C259.538 175.838 259.538 174.6 260.213 174.713C260.888 174.713 260.888 175.838 260.213 175.838ZM264.375 185.85H261V184.162C261 183.15 261.787 182.25 262.688 182.25C263.588 182.25 264.375 183.15 264.375 184.162V185.85ZM264.6 181.238C263.362 181.238 262.013 181.125 260.775 181.125V177.188C260.775 175.95 261.675 175.05 262.688 175.05C263.7 175.163 264.6 176.175 264.6 177.3V181.238ZM265.162 176.062C264.487 176.062 264.487 174.825 265.162 174.938C265.837 174.938 265.837 176.175 265.162 176.062ZM269.325 185.85H265.95V184.275C265.95 183.263 266.737 182.475 267.637 182.475C268.537 182.475 269.325 183.375 269.325 184.387V185.85ZM269.55 181.35C268.313 181.35 266.962 181.238 265.725 181.238V177.412C265.725 176.175 266.625 175.275 267.637 175.387C268.65 175.5 269.55 176.512 269.55 177.637V181.35ZM270.113 176.4C269.438 176.4 269.438 175.275 270.113 175.275C270.788 175.388 270.788 176.513 270.113 176.4ZM274.275 185.85H270.9V184.275C270.9 183.263 271.688 182.475 272.588 182.475C273.488 182.475 274.275 183.263 274.275 184.275V185.85ZM274.5 181.575C273.262 181.575 271.913 181.463 270.675 181.463V177.75C270.675 176.625 271.575 175.725 272.588 175.838C273.6 175.95 274.5 176.962 274.5 177.975V181.575ZM275.062 176.85C274.387 176.85 274.387 175.725 275.062 175.838C275.738 175.838 275.738 176.85 275.062 176.85ZM279.225 185.85H275.85V184.387C275.85 183.375 276.637 182.7 277.537 182.7C278.437 182.7 279.225 183.487 279.225 184.387V185.85ZM279.45 181.8C278.212 181.688 276.863 181.687 275.625 181.575V177.975C275.625 176.85 276.525 176.063 277.537 176.175C278.55 176.288 279.45 177.188 279.45 178.312V181.8ZM280.012 177.188C279.45 177.075 279.45 176.175 280.012 176.175V177.188ZM413.55 164.475V169.762H404.212V164.475H413.55ZM402.188 160.088H404.212V163.688H402.188V160.088ZM398.812 185.85H398.025V183.375H398.812V185.85ZM401.512 175.613H398.137V170.438H401.512V175.613ZM401.512 163.575H398.137V159.975H401.512V163.575ZM402.188 170.438H404.212V175.613H402.188V170.438ZM413.55 182.7H404.212V180.113H413.55V182.7ZM415.575 175.613H413.55V170.438H415.575V175.613ZM415.575 163.575H413.55V159.975H415.575V163.575ZM419.625 185.85H418.837V183.375H419.625V185.85ZM419.625 175.613H416.25V170.438H419.625V175.613ZM419.625 163.575H416.25V159.975H419.625V163.575ZM434.7 185.85H428.962L433.125 183.6L434.475 184.387H434.7V185.85ZM436.05 185.85H435.488V184.387H436.05V185.85ZM436.613 185.85V184.387H437.85L438.975 185.738H436.613V185.85ZM459.788 185.85L460.462 184.838L461.363 185.85H459.788ZM464.85 185.175L465.75 185.85H464.512L464.85 185.175Z" fill="#2E5E5E"/>
<path d="M1212.19 15.6375C1212.19 6.975 1219.16 0 1227.71 0C1234.24 0 1239.75 3.9375 1242.11 9.5625C1242.56 9.5625 1242.9 9.45 1243.35 9.45C1249.65 9.45 1254.71 14.5125 1254.71 20.8125C1254.71 21.9375 1254.6 22.95 1254.26 23.9625H1204.88C1204.88 19.6875 1208.14 16.2 1212.19 15.6375Z" fill="#F7F7F7"/>
<path d="M1311.07 30.7125C1311.07 19.0125 1301.62 9.5625 1290.04 9.5625C1281.26 9.5625 1273.72 14.85 1270.57 22.5C1270.01 22.5 1269.45 22.3875 1269 22.3875C1260.56 22.3875 1253.7 29.25 1253.7 37.6875C1253.7 39.15 1253.92 40.6125 1254.26 41.9625H1320.97C1320.97 36.1125 1316.59 31.3875 1311.07 30.7125Z" fill="#F7F7F7"/>
<path d="M1438.54 167.738V160.875H1433.93V154.688H1428.98V160.875H1425.49V151.537H1417.05V156.262H1413.9V167.625H1411.43V147.037H1402.99V167.625H1401.19V144.225H1391.63V113.4H1387.24V109.912H1381.39V113.4H1378.46V109.912H1372.61V113.4H1368.23V144.225H1358.66V167.625H1356.86V147.037H1353.6V88.0875H1349.33V85.275H1344.6L1343.7 70.65L1342.8 85.275H1338.08V88.0875H1336.39L1335.94 81.3375L1335.49 88.0875H1333.8V160.762H1330.65V154.575H1330.2V121.612H1328.06V116.1H1318.73V115.537C1318.73 115.537 1318.61 115.537 1318.39 115.425L1318.28 114.525L1318.16 115.312C1317.94 115.2 1317.49 115.087 1317.15 114.862V111.15H1314C1313.78 110.588 1313.44 109.912 1313.21 109.125C1313.33 109.125 1313.44 109.125 1313.44 109.013C1313.44 109.013 1313.33 108.9 1313.21 108.9C1313.1 108.9 1312.99 108.9 1312.99 109.013C1312.99 109.013 1313.1 109.125 1313.21 109.125C1312.99 109.912 1312.76 110.588 1312.43 111.15H1310.63V113.85C1309.73 114.75 1308.83 115.087 1308.26 115.312L1308.15 114.525L1308.04 115.425C1307.81 115.425 1307.7 115.537 1307.7 115.537V116.1H1299.04V113.963H1293.41V112.612L1288.8 105.3V95.85C1288.8 95.85 1288.58 95.85 1288.13 95.7375L1288.01 93.825L1287.9 95.625C1285.99 94.95 1281.83 92.25 1279.58 82.35C1279.8 82.35 1280.03 82.2375 1280.03 82.125C1280.03 82.0125 1279.8 82.0125 1279.58 81.9C1279.35 81.9 1279.13 82.0125 1279.13 82.125C1279.13 82.2375 1279.35 82.2375 1279.58 82.35C1277.33 92.3625 1273.05 94.95 1271.25 95.7375L1271.14 93.9375L1271.03 95.85C1270.69 95.9625 1270.46 95.9625 1270.46 95.9625V105.412L1265.74 112.725V114.075H1264.05V119.475H1259.89V123.412H1256.74V124.2H1256.51V124.088H1255.5V123.412L1252.8 120.037V115.537C1252.8 115.537 1252.69 115.537 1252.46 115.425L1252.35 114.525L1252.24 115.312C1251.11 114.975 1248.64 113.737 1247.29 109.125C1247.4 109.125 1247.51 109.125 1247.51 109.013C1247.51 109.013 1247.4 108.9 1247.29 108.9C1247.18 108.9 1247.06 108.9 1247.06 109.013C1247.06 109.013 1247.18 109.125 1247.29 109.125C1245.94 113.737 1243.46 114.975 1242.34 115.312L1242.23 114.525L1242.11 115.425C1241.89 115.425 1241.78 115.537 1241.78 115.537V119.925L1238.96 123.3V123.975H1237.95V133.088H1238.51V140.625H1230.75V138.375H1229.85V124.537H1227.94L1227.04 109.575L1226.14 124.537H1222.76L1221.86 105.75L1220.96 124.537H1217.81V138.375H1216.13V137.475H1213.76L1212.3 135.338V134.662H1211.85L1209.83 131.85V131.4H1209.49L1208.48 129.938L1205.66 123.188L1203.75 129.487L1201.05 123.075L1199.7 129.487L1198.35 123.975L1192.05 113.287L1189.69 92.1375L1184.85 68.625L1186.31 67.05L1184.4 64.9125L1182.49 67.05L1184.18 68.85L1182.6 92.475L1180.01 75.825L1177.2 57.7125L1179.23 55.575L1176.75 52.875L1174.28 55.575L1176.41 57.9375L1175.96 63L1174.39 76.5V104.4L1170.45 103.162V96.6375L1171.24 95.7375L1169.33 93.6L1167.41 95.7375L1168.2 96.525V102.713L1164.26 103.162L1162.69 76.275L1160.66 57.7125L1162.58 55.575L1160.1 52.875L1157.63 55.575L1159.43 57.6L1157.29 75.2625L1154.48 106.312L1151.55 64.8L1153.13 62.2125L1150.76 60.1875L1148.4 62.55L1149.75 64.9125V70.9875L1147.16 88.9875L1145.14 110.588L1142.33 113.513L1143.9 116.662L1141.54 118.237L1137.94 116.1L1137.71 115.2L1139.18 113.737L1137.15 111.713L1135.13 113.737L1135.91 114.525V116.325L1129.39 115.875L1129.61 113.85L1130.63 112.838L1129.05 111.263L1128.83 110.588L1128.6 110.925L1126.58 112.95L1127.25 113.625L1127.48 116.1H1122.08V112.725L1122.98 111.825L1120.95 109.8L1118.93 111.825L1119.94 112.838V114.862L1117.91 120.825L1116 120.375L1115.78 118.35V120.263L1112.51 119.588L1110.15 120.938V118.35L1109.81 121.05L1108.35 121.838L1109.59 122.737L1109.25 125.438H1107.23V126.338L1107.11 126.225L1101.83 130.95H1104.41V131.4L1101.94 139.612H1101.83V157.613H1101.49V144.225H1099.35V142.088H1085.18V157.613H1074.94V125.438H1072.13V101.362H1069.65V99.225H1067.18V81.225H1066.16V78.75H1056.6V81.225H1055.14V99.225H1053V125.438H1050.53V155.812H1044.9V159.412H1038.49V137.362H1036.69V119.362H1033.54V115.537H1023.75V119.475H1020.6V137.475H1018.8V144.113H1009.13V153.338H1001.14V152.662C1001.93 144.112 1002.49 134.55 1002.49 124.312C1002.49 89.775 997.088 61.65 990.45 61.65C983.813 61.65 978.413 89.6625 978.413 124.312C978.413 131.175 978.638 137.813 978.975 144.113H971.55V110.588H970.088V107.1H967.95L967.163 94.5L966.6 107.1H964.125V110.588H959.738V141.412H950.175V164.812H948.375V144.225H939.938V164.812H937.463V153.45H934.313V148.725H925.875V158.062H922.388V151.875H917.438V158.062H915.3V144.225H896.063V147.6H890.213V164.812C878.4 167.4 869.175 170.437 858.825 177.075C850.388 182.475 841.838 187.65 833.4 193.162H1440V167.738H1438.54Z" fill="#2E5E5E"/>
<path d="M124.536 65.7002C125.661 66.2627 126.899 66.8252 127.911 67.7252C128.511 68.2502 128.511 68.7752 127.911 69.3002C127.686 69.5252 127.574 69.6377 127.574 69.9752C127.686 70.6502 127.911 71.2127 128.361 71.6627C128.586 71.7752 128.811 71.8877 129.036 72.0002C129.374 71.1002 129.261 70.2002 129.936 69.6377C130.049 69.7502 130.161 69.7502 130.274 69.8627C130.949 70.7627 131.624 71.7752 132.186 72.7877C132.299 73.0127 132.411 73.2377 132.524 73.3502C132.636 73.4627 132.861 73.4627 132.861 73.4627C132.974 73.3502 133.086 73.2377 133.086 73.0127V72.6752C132.861 71.4377 132.524 70.2002 132.299 68.9627C132.186 68.4002 131.961 68.0627 131.511 67.7252C130.836 67.2752 130.499 66.6002 130.611 65.7002C130.611 65.4752 130.611 65.3627 130.499 65.1377H130.274C130.161 65.1377 130.161 65.2502 130.049 65.3627C129.674 65.7377 129.299 65.7377 128.924 65.3627C128.699 65.1377 128.361 64.8002 128.136 64.6877C126.674 64.1252 125.211 64.2377 123.749 64.2377C123.636 64.2377 123.299 64.4627 123.299 64.5752C123.299 64.8002 123.411 65.0252 123.524 65.2502C123.974 65.3627 124.199 65.4752 124.536 65.7002Z" fill="#2E5E5E"/>
<path d="M91.5738 76.6129C91.7988 76.6129 91.9113 76.5004 92.0238 76.3879C92.4738 75.8254 93.0363 75.7129 93.4863 75.2629C94.0488 74.9254 94.4988 75.0379 95.0613 75.3754C95.5113 75.7129 95.7363 76.1629 95.5113 76.7254C95.3988 77.0629 95.2863 77.4004 95.1738 77.7379C95.1738 77.9629 95.1738 78.3004 95.2863 78.4129C95.6238 78.8629 96.0738 79.0879 96.5238 78.9754C96.9738 78.8629 97.0863 78.6379 97.0863 78.0754C97.0863 77.8504 97.0863 77.6254 96.9738 77.2879C96.8613 76.3879 97.0863 76.0504 97.9863 76.2754C98.2113 76.3879 98.5488 76.6129 98.6613 76.8379C98.9988 77.5129 99.1113 78.1879 99.3363 78.8629C99.4488 79.2004 99.5613 79.5379 99.6738 79.7629C99.8988 79.9879 100.124 79.8754 100.124 79.5379V79.2004C100.011 77.6254 99.7863 76.1629 99.3363 74.7004C99.3363 74.4754 99.2238 74.3629 99.1113 74.1379C98.8863 73.6879 98.6613 73.4629 98.2113 73.4629C97.0863 73.4629 96.9738 73.3504 96.6363 72.0004C96.6363 72.0004 96.6363 71.8879 96.5238 71.7754C96.4113 71.7754 96.2988 71.7754 96.2988 71.8879C96.1863 72.0004 96.0738 72.1129 96.0738 72.2254C95.8488 72.6754 95.7363 72.6754 95.2863 72.4504C95.1738 72.3379 95.0613 72.3379 94.9488 72.2254C94.4988 71.7754 94.0488 71.6629 93.5988 72.1129C93.0363 72.5629 92.4738 73.1254 92.0238 73.6879C91.5738 74.2504 91.2363 74.8129 90.8988 75.4879C90.7863 76.1629 91.1238 76.6129 91.5738 76.6129Z" fill="#2E5E5E"/>
<path d="M99.3363 98.099C98.7738 97.199 98.0988 96.6365 97.1988 96.524C95.8488 96.299 95.1738 96.299 94.6113 96.6365C94.8363 96.8615 95.1738 97.0865 95.3988 97.199C96.4113 97.874 97.4238 98.549 98.4363 99.224C98.6613 99.3365 98.7738 99.5615 98.8863 99.674C99.1113 99.899 99.2238 100.124 99.3363 100.349C99.4488 100.799 99.2238 101.249 99.1113 101.586C98.9988 102.261 98.9988 102.374 99.5613 102.599C99.8988 102.711 100.236 102.824 100.574 102.824C100.911 102.824 101.024 102.599 100.911 102.261C100.911 101.924 100.799 101.586 100.799 101.249C100.799 100.799 100.911 100.349 101.249 100.236C101.924 100.011 102.599 99.7865 103.274 99.5615C104.399 99.224 105.411 98.999 106.536 98.6615C106.649 98.6615 106.874 98.4365 106.986 98.324C106.761 98.2115 106.649 97.9865 106.424 97.9865C105.299 97.7615 104.061 97.5365 102.936 97.424C102.486 97.3115 102.036 97.5365 101.586 97.874C100.799 98.6615 100.686 98.6615 100.124 97.649C99.8988 97.7615 99.6738 97.9865 99.3363 98.099Z" fill="#2E5E5E"/>
</g>
<defs>
<clipPath id="clip0_291_7400">
<rect width="1440" height="193.162" fill="white"/>
</clipPath>
</defs>
</svg>
