<svg width="64" height="64" viewBox="0 0 64 64" fill="none" xmlns="http://www.w3.org/2000/svg">
<g clip-path="url(#clip0_89_14688)">
<rect width="64" height="64" rx="32" fill="#2E5E5E"/>
<path d="M41.351 -22.6432L66.7743 -22.7483C67.1115 -22.7483 67.3159 -22.3804 67.129 -22.1045L50.1778 3.08082C49.9748 3.38302 50.2362 3.77867 50.6012 3.71881L59.8235 2.20778C60.1987 2.14646 60.4601 2.564 60.2338 2.86329L39.4283 30.5217C39.2254 30.7903 39.4152 31.1728 39.7553 31.183L47.3032 31.4196C47.6579 31.4312 47.8419 31.8386 47.6127 32.1043L19.1761 64.8082C18.8739 65.1556 18.3031 64.8374 18.4535 64.4052L28.1985 36.3527C28.2919 36.084 28.089 35.8052 27.7999 35.8037L20.9733 35.7731C20.6565 35.7731 20.4536 35.4431 20.5981 35.1672L32.6279 12.3149C32.7812 12.0229 32.5433 11.6784 32.2089 11.7119L27.0014 12.22C26.6831 12.2506 26.4451 11.9382 26.5678 11.6477L40.9627 -22.3877C41.0284 -22.5424 41.1817 -22.6432 41.351 -22.6432Z" fill="#EF8C48"/>
<path d="M38.4998 -23.8813L64.8019 -24.8302C65.1523 -24.8434 65.3742 -24.4609 65.1902 -24.163L48.4638 2.97416C48.2623 3.29973 48.547 3.70851 48.9222 3.63405L58.4162 1.73468C58.8016 1.65731 59.0863 2.08944 58.8629 2.41355L38.2282 32.2881C38.0282 32.5787 38.2355 32.9743 38.5888 32.9743H46.4053C46.7732 32.9743 46.9761 33.3991 46.7469 33.6853L18.3819 69.1383C18.0797 69.5149 17.4797 69.1981 17.6213 68.7368L26.7984 38.8111C26.886 38.525 26.667 38.2374 26.3677 38.2447L19.3031 38.4374C18.9761 38.4461 18.7542 38.106 18.8958 37.8111L30.6059 13.2988C30.7563 12.9849 30.4979 12.6302 30.1533 12.6754L24.7808 13.3835C24.4523 13.4273 24.1968 13.1032 24.3136 12.7937L38.1056 -23.5981C38.1684 -23.763 38.3231 -23.874 38.4998 -23.8798V-23.8813Z" stroke="#F7F7F7" stroke-width="0.437979" stroke-miterlimit="10"/>
<path d="M12.1068 47.7129L12.744 47.997C12.876 48.0564 12.8838 48.2408 12.7562 48.3099L12.1435 48.6429C12.0928 48.67 12.0587 48.7207 12.0535 48.7784L11.98 49.4715C11.9652 49.6157 11.7912 49.6796 11.6855 49.5799L11.1794 49.1C11.1374 49.0607 11.0789 49.0441 11.0229 49.0555L10.3403 49.1997C10.1987 49.2294 10.0842 49.0843 10.1462 48.9532L10.4469 48.3239C10.4714 48.2723 10.4696 48.2111 10.4408 48.1613L10.0929 47.5573C10.0203 47.4314 10.1235 47.2776 10.2668 47.2968L10.9582 47.3877C11.015 47.3956 11.0727 47.3746 11.1112 47.3318L11.578 46.8143C11.675 46.7068 11.8533 46.7575 11.8795 46.9L12.0063 47.5853C12.0167 47.6421 12.0543 47.6893 12.1068 47.7129Z" fill="#F7F7F7"/>
<path d="M53.6396 15.0014L54.2768 15.2855C54.4088 15.345 54.4166 15.5294 54.289 15.5984L53.6763 15.9315C53.6256 15.9586 53.5915 16.0093 53.5863 16.067L53.5128 16.7601C53.498 16.9043 53.324 16.9681 53.2183 16.8685L52.7122 16.3886C52.6702 16.3493 52.6117 16.3327 52.5557 16.344L51.8731 16.4883C51.7315 16.518 51.617 16.3729 51.679 16.2418L51.9797 15.6124C52.0042 15.5609 52.0024 15.4997 51.9736 15.4499L51.6257 14.8459C51.5531 14.72 51.6563 14.5662 51.7996 14.5854L52.491 14.6763C52.5479 14.6842 52.6055 14.6632 52.644 14.6204L53.1108 14.1029C53.2078 13.9954 53.3861 14.0461 53.4123 14.1886L53.5391 14.8738C53.5495 14.9306 53.5871 14.9778 53.6396 15.0014Z" fill="#F7F7F7"/>
<path d="M9.26076 43.2297L9.82454 43.6397C9.94167 43.7253 9.9102 43.9071 9.77123 43.9482L9.10255 44.1458C9.04749 44.1624 9.00378 44.2043 8.9863 44.2594L8.7704 44.9228C8.72583 45.0609 8.54227 45.0872 8.46011 44.9674L8.06502 44.3923C8.03268 44.3451 7.97849 44.3162 7.9208 44.3162H7.22328C7.07818 44.3162 6.9969 44.1493 7.0843 44.0348L7.50911 43.4815C7.54407 43.436 7.55456 43.3757 7.53708 43.3215L7.32205 42.6581C7.27748 42.52 7.41034 42.3906 7.54669 42.4396L8.204 42.6721C8.25819 42.6913 8.3185 42.6826 8.36483 42.6485L8.92949 42.2394C9.04661 42.1546 9.21094 42.2403 9.20657 42.3854L9.18821 43.0829C9.18647 43.1406 9.21356 43.1948 9.25989 43.2289L9.26076 43.2297Z" fill="#F7F7F7"/>
<path d="M56.6866 19.8674L57.2504 20.2774C57.3675 20.363 57.3361 20.5448 57.1971 20.5859L56.5284 20.7835C56.4733 20.8001 56.4296 20.842 56.4121 20.8971L56.1962 21.5605C56.1517 21.6986 55.9681 21.7248 55.886 21.6051L55.4909 21.03C55.4585 20.9828 55.4043 20.9539 55.3466 20.9539H54.6491C54.504 20.9539 54.4227 20.787 54.5101 20.6725L54.935 20.1192C54.9699 20.0737 54.9804 20.0134 54.9629 19.9592L54.7479 19.2958C54.7033 19.1577 54.8362 19.0283 54.9725 19.0773L55.6298 19.3098C55.684 19.329 55.7443 19.3203 55.7907 19.2862L56.3553 18.8771C56.4725 18.7923 56.6368 18.878 56.6324 19.0231L56.6141 19.7206C56.6123 19.7783 56.6394 19.8325 56.6857 19.8666L56.6866 19.8674Z" fill="#F7F7F7"/>
<path d="M7.40858 38.2518L7.87446 38.7702C7.97149 38.8777 7.90243 39.0499 7.75821 39.0612L7.06332 39.1154C7.00563 39.1198 6.95406 39.1521 6.92609 39.202L6.57733 39.806C6.50478 39.9309 6.32035 39.9196 6.26441 39.785L5.99781 39.1408C5.97596 39.0875 5.92876 39.049 5.87282 39.0368L5.19104 38.8917C5.04944 38.8611 5.00399 38.6819 5.11412 38.5875L5.64469 38.1347C5.68839 38.0971 5.71112 38.0412 5.705 37.9835L5.63245 37.2895C5.61759 37.1453 5.77405 37.0465 5.8973 37.1225L6.49167 37.487C6.54062 37.5167 6.6018 37.5211 6.65425 37.4975L7.29145 37.2143C7.42344 37.1557 7.56591 37.2737 7.5327 37.4145L7.37012 38.0928C7.35701 38.1487 7.37187 38.2073 7.41033 38.2501L7.40858 38.2518Z" fill="#F7F7F7"/>
<path d="M58.6559 25.2614L59.1218 25.7797C59.2188 25.8872 59.1498 26.0594 59.0056 26.0708L58.3107 26.1249C58.253 26.1293 58.2014 26.1617 58.1734 26.2115L57.8247 26.8155C57.7521 26.9405 57.5677 26.9291 57.5118 26.7945L57.2452 26.1503C57.2233 26.097 57.1761 26.0585 57.1202 26.0463L56.4384 25.9012C56.2968 25.8706 56.2513 25.6914 56.3615 25.597L56.892 25.1442C56.9357 25.1066 56.9585 25.0507 56.9523 24.993L56.8798 24.299C56.8649 24.1548 57.0214 24.056 57.1446 24.132L57.739 24.4965C57.788 24.5263 57.8492 24.5306 57.9016 24.507L58.5388 24.2238C58.6708 24.1653 58.8133 24.2833 58.78 24.424L58.6175 25.1023C58.6044 25.1582 58.6192 25.2168 58.6577 25.2596L58.6559 25.2614Z" fill="#F7F7F7"/>
<path d="M6.6324 32.9986L6.98029 33.6026C7.05283 33.7285 6.94969 33.8823 6.80634 33.8631L6.11495 33.7722C6.05813 33.7643 6.00044 33.7853 5.96198 33.8281L5.49522 34.3456C5.3982 34.4531 5.21989 34.4024 5.19367 34.2599L5.06692 33.5746C5.05644 33.5178 5.01885 33.4706 4.96641 33.447L4.3292 33.1629C4.19721 33.1035 4.18935 32.9191 4.31696 32.85L4.92969 32.517C4.98039 32.4899 5.01448 32.4392 5.01972 32.3815L5.09315 31.6884C5.10801 31.5441 5.28195 31.4803 5.38771 31.58L5.8938 32.0598C5.93576 32.0992 5.99432 32.1158 6.05026 32.1044L6.73292 31.9602C6.87452 31.9305 6.98903 32.0756 6.92697 32.2067L6.62628 32.836C6.60181 32.8876 6.60356 32.9488 6.6324 32.9986Z" fill="#F7F7F7"/>
<path d="M59.4601 30.9464L59.808 31.5504C59.8805 31.6762 59.7774 31.8301 59.634 31.8108L58.9426 31.7199C58.8858 31.7121 58.8281 31.733 58.7896 31.7759L58.3229 32.2933C58.2259 32.4008 58.0476 32.3501 58.0213 32.2077L57.8946 31.5224C57.8841 31.4656 57.8465 31.4184 57.7941 31.3948L57.1569 31.1107C57.0249 31.0513 57.017 30.8668 57.1446 30.7978L57.7574 30.4647C57.8081 30.4376 57.8421 30.3869 57.8474 30.3293L57.9208 29.6361C57.9357 29.4919 58.1096 29.4281 58.2154 29.5277L58.7215 30.0076C58.7634 30.0469 58.822 30.0635 58.8779 30.0522L59.5606 29.908C59.7022 29.8782 59.8167 30.0233 59.7546 30.1544L59.4539 30.7838C59.4295 30.8354 59.4312 30.8965 59.4601 30.9464Z" fill="#F7F7F7"/>
<path d="M6.96457 27.6983L7.17959 28.3617C7.22417 28.4998 7.09131 28.6292 6.95496 28.5802L6.29765 28.3477C6.24345 28.3285 6.18314 28.3372 6.13682 28.3713L5.57216 28.7804C5.45503 28.8652 5.29071 28.7795 5.29508 28.6344L5.31343 27.9369C5.31518 27.8792 5.28808 27.825 5.24176 27.7909L4.67798 27.381C4.56085 27.2953 4.59232 27.1135 4.7313 27.0724L5.39997 26.8749C5.45503 26.8583 5.49874 26.8163 5.51622 26.7613L5.73212 26.0978C5.7767 25.9597 5.96025 25.9335 6.04242 26.0533L6.4375 26.6284C6.46984 26.6756 6.52403 26.7045 6.58172 26.7045H7.27924C7.42434 26.7045 7.50563 26.8714 7.41822 26.9859L6.99342 27.5392C6.95845 27.5847 6.94796 27.645 6.96544 27.6992L6.96457 27.6983Z" fill="#F7F7F7"/>
<path d="M59.065 36.6741L59.28 37.3375C59.3246 37.4756 59.1917 37.605 59.0554 37.5561L58.3981 37.3236C58.3439 37.3043 58.2835 37.3131 58.2372 37.3472L57.6726 37.7562C57.5554 37.841 57.3911 37.7554 57.3955 37.6103L57.4138 36.9127C57.4156 36.8551 57.3885 36.8009 57.3422 36.7668L56.7784 36.3568C56.6613 36.2712 56.6927 36.0894 56.8317 36.0483L57.5004 35.8507C57.5554 35.8341 57.5991 35.7922 57.6166 35.7371L57.8325 35.0737C57.8771 34.9356 58.0607 34.9093 58.1428 35.0291L58.5379 35.6042C58.5702 35.6514 58.6244 35.6803 58.6821 35.6803H59.3796C59.5247 35.6803 59.606 35.8472 59.5186 35.9617L59.0938 36.515C59.0589 36.5605 59.0484 36.6208 59.0658 36.675L59.065 36.6741Z" fill="#F7F7F7"/>
<path d="M8.39192 22.5823L8.46446 23.2763C8.47932 23.4205 8.32286 23.5193 8.19962 23.4432L7.60524 23.0787C7.55629 23.049 7.49511 23.0447 7.44266 23.0683L6.80546 23.3515C6.67347 23.41 6.531 23.292 6.56421 23.1513L6.72679 22.473C6.7399 22.4171 6.72504 22.3585 6.68659 22.3157L6.2207 21.7973C6.12368 21.6898 6.19273 21.5176 6.33695 21.5063L7.03185 21.4521C7.08954 21.4477 7.14111 21.4154 7.16908 21.3655L7.51784 20.7616C7.59038 20.6366 7.77481 20.6479 7.83076 20.7825L8.09735 21.4267C8.1192 21.4801 8.1664 21.5185 8.22234 21.5307L8.90413 21.6758C9.04573 21.7064 9.09118 21.8856 8.98105 21.98L8.45048 22.4328C8.40677 22.4704 8.38405 22.5263 8.39017 22.584L8.39192 22.5823Z" fill="#F7F7F7"/>
<path d="M57.4882 42.1948L57.5607 42.8888C57.5756 43.0331 57.4191 43.1318 57.2959 43.0558L56.7015 42.6913C56.6525 42.6616 56.5914 42.6572 56.5389 42.6808L55.9017 42.964C55.7697 43.0226 55.6273 42.9046 55.6605 42.7638L55.823 42.0856C55.8362 42.0296 55.8213 41.971 55.7828 41.9282L55.317 41.4099C55.2199 41.3024 55.289 41.1302 55.4332 41.1188L56.1281 41.0646C56.1858 41.0603 56.2374 41.0279 56.2653 40.9781L56.6141 40.3741C56.6866 40.2491 56.8711 40.2605 56.927 40.3951L57.1936 41.0393C57.2155 41.0926 57.2627 41.1311 57.3186 41.1433L58.0004 41.2884C58.142 41.319 58.1874 41.4982 58.0773 41.5926L57.5467 42.0453C57.503 42.0829 57.4803 42.1389 57.4864 42.1966L57.4882 42.1948Z" fill="#F7F7F7"/>
<path d="M10.8525 17.8753L10.779 18.5684C10.7642 18.7127 10.5902 18.7765 10.4845 18.6768L9.97839 18.197C9.93643 18.1576 9.87787 18.141 9.82192 18.1524L9.13927 18.2966C8.99767 18.3263 8.88316 18.1812 8.94522 18.0501L9.24591 17.4208C9.27038 17.3692 9.26863 17.308 9.23979 17.2582L8.8919 16.6542C8.81936 16.5283 8.9225 16.3745 9.06585 16.3937L9.75724 16.4846C9.81406 16.4925 9.87175 16.4715 9.91021 16.4287L10.377 15.9112C10.474 15.8037 10.6523 15.8544 10.6785 15.9969L10.8053 16.6822C10.8158 16.739 10.8533 16.7862 10.9058 16.8098L11.543 17.0939C11.675 17.1533 11.6828 17.3377 11.5552 17.4068L10.9425 17.7398C10.8918 17.7669 10.8577 17.8176 10.8525 17.8753Z" fill="#F7F7F7"/>
<path d="M54.7968 47.2671L54.7234 47.9603C54.7085 48.1045 54.5346 48.1683 54.4288 48.0687L53.9228 47.5888C53.8808 47.5495 53.8222 47.5329 53.7663 47.5442L53.0836 47.6885C52.942 47.7182 52.8275 47.5731 52.8896 47.442L53.1903 46.8126C53.2147 46.7611 53.213 46.6999 53.1842 46.65L52.8363 46.0461C52.7637 45.9202 52.8669 45.7664 53.0102 45.7856L53.7016 45.8765C53.7584 45.8844 53.8161 45.8634 53.8546 45.8205L54.3213 45.3031C54.4184 45.1956 54.5967 45.2463 54.6229 45.3887L54.7496 46.074C54.7601 46.1308 54.7977 46.178 54.8501 46.2016L55.4874 46.4857C55.6193 46.5452 55.6272 46.7296 55.4996 46.7986L54.8869 47.1317C54.8362 47.1588 54.8021 47.2095 54.7968 47.2671Z" fill="#F7F7F7"/>
<path d="M14.2369 13.7828L14.021 14.4463C13.9764 14.5844 13.7929 14.6106 13.7107 14.4908L13.3156 13.9157C13.2833 13.8685 13.2291 13.8397 13.1714 13.8397H12.4739C12.3288 13.8397 12.2475 13.6727 12.3349 13.5582L12.7597 13.0049C12.7947 12.9595 12.8052 12.8991 12.7877 12.8449L12.5727 12.1815C12.5281 12.0434 12.6609 11.9141 12.7973 11.963L13.4546 12.1955C13.5088 12.2147 13.5691 12.206 13.6154 12.1719L14.1801 11.7628C14.2972 11.6781 14.4616 11.7637 14.4572 11.9088L14.4388 12.6063C14.4371 12.664 14.4642 12.7182 14.5105 12.7523L15.0743 13.1622C15.1914 13.2479 15.1599 13.4297 15.021 13.4708L14.3523 13.6683C14.2972 13.6849 14.2535 13.7269 14.236 13.782L14.2369 13.7828Z" fill="#F7F7F7"/>
<path d="M51.1108 51.6691L50.8949 52.3325C50.8504 52.4706 50.6668 52.4968 50.5846 52.3771L50.1896 51.8019C50.1572 51.7547 50.103 51.7259 50.0453 51.7259H49.3478C49.2027 51.7259 49.1214 51.5589 49.2088 51.4444L49.6336 50.8911C49.6686 50.8457 49.6791 50.7854 49.6616 50.7312L49.4466 50.0678C49.402 49.9296 49.5349 49.8003 49.6712 49.8492L50.3285 50.0817C50.3827 50.101 50.443 50.0922 50.4894 50.0581L51.054 49.6491C51.1712 49.5643 51.3355 49.6499 51.3311 49.795L51.3128 50.4926C51.311 50.5502 51.3381 50.6044 51.3844 50.6385L51.9482 51.0485C52.0653 51.1341 52.0339 51.3159 51.8949 51.357L51.2262 51.5546C51.1712 51.5712 51.1275 51.6131 51.11 51.6682L51.1108 51.6691Z" fill="#F7F7F7"/>
<path d="M18.3984 10.4832L18.0497 11.0872C17.9771 11.2122 17.7927 11.2008 17.7367 11.0662L17.4701 10.422C17.4483 10.3687 17.4011 10.3302 17.3451 10.318L16.6634 10.1729C16.5218 10.1423 16.4763 9.96313 16.5864 9.86873L17.117 9.41596C17.1607 9.37837 17.1834 9.32243 17.1773 9.26474L17.1048 8.57072C17.0899 8.4265 17.2464 8.32773 17.3696 8.40377L17.964 8.76827C18.0129 8.79798 18.0741 8.80236 18.1266 8.77876L18.7638 8.49555C18.8958 8.43699 19.0382 8.55499 19.005 8.69572L18.8424 9.374C18.8293 9.42994 18.8442 9.48851 18.8826 9.53134L19.3485 10.0497C19.4456 10.1572 19.3765 10.3294 19.2323 10.3407L18.5374 10.3949C18.4797 10.3993 18.4281 10.4316 18.4002 10.4815L18.3984 10.4832Z" fill="#F7F7F7"/>
<path d="M46.5901 55.2083L46.2414 55.8123C46.1688 55.9373 45.9844 55.9259 45.9284 55.7913L45.6618 55.1471C45.64 55.0938 45.5928 55.0553 45.5369 55.0431L44.8551 54.898C44.7135 54.8674 44.668 54.6882 44.7782 54.5938L45.3087 54.1411C45.3524 54.1035 45.3751 54.0475 45.369 53.9898L45.2965 53.2958C45.2816 53.1516 45.4381 53.0528 45.5613 53.1289L46.1557 53.4934C46.2046 53.5231 46.2658 53.5275 46.3183 53.5039L46.9555 53.2206C47.0875 53.1621 47.2299 53.2801 47.1967 53.4208L47.0342 54.0991C47.021 54.155 47.0359 54.2136 47.0744 54.2564L47.5402 54.7748C47.6373 54.8823 47.5682 55.0545 47.424 55.0658L46.7291 55.12C46.6714 55.1244 46.6198 55.1567 46.5919 55.2066L46.5901 55.2083Z" fill="#F7F7F7"/>
<path d="M23.1552 8.12157L22.6884 8.63902C22.5914 8.74654 22.4131 8.69584 22.3868 8.55336L22.2601 7.86808C22.2496 7.81127 22.212 7.76407 22.1596 7.74047L21.5224 7.45639C21.3904 7.39695 21.3825 7.21252 21.5101 7.14347L22.1229 6.81045C22.1736 6.78335 22.2077 6.73265 22.2129 6.67496L22.2863 5.98182C22.3012 5.83759 22.4751 5.77379 22.5809 5.87343L23.087 6.3533C23.1289 6.39264 23.1875 6.40924 23.2434 6.39788L23.9261 6.25366C24.0677 6.22394 24.1822 6.36904 24.1201 6.50015L23.8195 7.12949C23.795 7.18106 23.7967 7.24224 23.8256 7.29206L24.1735 7.89605C24.246 8.02192 24.1429 8.17576 23.9995 8.15653L23.3081 8.06563C23.2513 8.05776 23.1936 8.07874 23.1552 8.12157Z" fill="#F7F7F7"/>
<path d="M41.4322 57.73L40.9654 58.2474C40.8684 58.3549 40.6901 58.3042 40.6639 58.1618L40.5371 57.4765C40.5266 57.4197 40.489 57.3725 40.4366 57.3489L39.7994 57.0648C39.6674 57.0054 39.6595 56.8209 39.7871 56.7519L40.3999 56.4188C40.4506 56.3917 40.4847 56.3411 40.4899 56.2834L40.5633 55.5902C40.5782 55.446 40.7521 55.3822 40.8579 55.4818L41.364 55.9617C41.4059 56.001 41.4645 56.0176 41.5204 56.0063L42.2031 55.8621C42.3447 55.8323 42.4592 55.9774 42.3972 56.1085L42.0965 56.7379C42.072 56.7895 42.0737 56.8506 42.1026 56.9005L42.4505 57.5045C42.523 57.6303 42.4199 57.7842 42.2765 57.7649L41.5851 57.674C41.5283 57.6662 41.4706 57.6871 41.4322 57.73Z" fill="#F7F7F7"/>
<path d="M28.7032 36.3815V42.3994C28.7032 43.5624 28.9029 44.3721 29.3024 44.8268C29.7018 45.2831 30.5207 45.5105 31.759 45.5105H32.2092V47.5922H18.5034V45.5105H19.0088C20.284 45.5105 21.1121 45.277 21.4931 44.8068C21.8741 44.3383 22.0646 43.5347 22.0646 42.3978V27.3616C22.0646 26.1986 21.8634 25.3904 21.4639 24.9341C21.0629 24.4778 20.2456 24.2505 19.0073 24.2505H18.5018V22.1687L28.7017 22.1503L30.9893 22.1318C33.2508 22.1318 34.9039 22.2071 35.9486 22.3561C36.9918 22.5067 38.0212 22.8647 39.0321 23.4347C40.0446 24.0031 40.8419 24.782 41.4227 25.7684C42.0034 26.7563 42.2938 27.8179 42.2938 28.9563C42.2938 31.9814 40.5823 34.0493 37.1578 35.1616C38.0703 35.7362 39.4884 37.5368 41.4134 40.5619C42.9129 42.8987 43.9822 44.3091 44.6198 44.7899C45.2574 45.2708 45.9564 45.512 46.72 45.512V47.5938H38.7709C38.0458 46.7319 36.703 44.5441 34.7395 41.032C33.7517 39.2575 33.0588 38.113 32.6593 37.6014C32.2583 37.0882 31.8497 36.761 31.4302 36.6166C31.0108 36.4737 30.1028 36.3953 28.7032 36.383V36.3815ZM28.7032 34.0939C30.8157 34.1185 32.2399 33.9909 32.9773 33.7098C33.7148 33.4286 34.2955 32.9232 34.7211 32.1919C35.1451 31.4606 35.3587 30.4696 35.3587 29.2206C35.3587 27.4338 34.9362 26.1955 34.0927 25.5087C33.2493 24.822 31.7959 24.4778 29.7341 24.4778C29.4714 24.4778 29.1272 24.484 28.7032 24.4963V34.0954V34.0939Z" fill="#F7F7F7"/>
<path d="M24.0235 14.9585C24.4936 15.4993 25.1143 15.7697 25.8886 15.7697C26.5293 15.7697 27.6124 15.4333 29.1364 14.7588C31.9649 13.5097 34.085 12.886 35.5 12.886C36.9135 12.886 38.0934 13.4114 39.0382 14.4607C39.9831 15.5101 40.4947 17.1847 40.5715 19.4815H39.2456C39.0029 17.5703 38.1087 16.6147 36.5616 16.6147C35.8657 16.6147 34.7887 16.9297 33.3307 17.5596C31.3642 18.4107 30.0076 18.9438 29.2624 19.1589C28.5173 19.374 27.7845 19.4815 27.067 19.4815C25.609 19.4815 24.4014 18.9377 23.4458 17.8499C22.4902 16.7622 21.974 15.1076 21.8972 12.8875H23.223C23.2891 13.7279 23.558 14.4177 24.0265 14.9585H24.0235Z" fill="#F7F7F7"/>
</g>
<rect x="1.28" y="1.28" width="61.44" height="61.44" rx="30.72" stroke="#F7F7F7" stroke-width="2.56"/>
<defs>
<clipPath id="clip0_89_14688">
<rect width="64" height="64" rx="32" fill="white"/>
</clipPath>
</defs>
</svg>
