<svg width="56" height="56" viewBox="0 0 56 56" fill="none" xmlns="http://www.w3.org/2000/svg">
<g clip-path="url(#clip0_89_14660)">
<rect width="56" height="56" rx="28" fill="#FFD115"/>
<path d="M36.1822 -19.8131L58.4275 -19.905C58.7226 -19.905 58.9014 -19.5831 58.7379 -19.3417L43.9056 2.69544C43.728 2.95987 43.9567 3.30606 44.276 3.25368L52.3456 1.93153C52.6739 1.87788 52.9026 2.24323 52.7046 2.5051L34.4998 26.7062C34.3222 26.9413 34.4883 27.2759 34.7859 27.2849L41.3903 27.4918C41.7007 27.502 41.8617 27.8585 41.6611 28.0909L16.7791 56.7069C16.5147 57.0109 16.0152 56.7324 16.1468 56.3543L24.6737 31.8083C24.7555 31.5732 24.5779 31.3293 24.325 31.328L18.3517 31.3012C18.0745 31.3012 17.8969 31.0125 18.0234 30.771L28.5495 10.7752C28.6836 10.5198 28.4754 10.2183 28.1828 10.2477L23.6262 10.6922C23.3477 10.719 23.1395 10.4457 23.2468 10.1915L35.8424 -19.5895C35.8999 -19.7249 36.034 -19.8131 36.1822 -19.8131Z" fill="#F7F7F7"/>
<path d="M33.6873 -20.8962L56.7017 -21.7265C57.0083 -21.738 57.2024 -21.4033 57.0415 -21.1427L42.4058 2.60233C42.2296 2.8872 42.4787 3.24489 42.807 3.17974L51.1141 1.51779C51.4514 1.45008 51.7005 1.8282 51.505 2.1118L33.4497 28.2521C33.2747 28.5063 33.4561 28.8525 33.7652 28.8525H40.6046C40.9266 28.8525 41.1041 29.2242 40.9036 29.4746L16.0842 60.4959C15.8198 60.8255 15.2947 60.5483 15.4186 60.1446L23.4486 33.9597C23.5253 33.7093 23.3337 33.4576 23.0718 33.464L16.8902 33.6326C16.6041 33.6403 16.4099 33.3427 16.5338 33.0846L26.7802 11.6364C26.9118 11.3617 26.6857 11.0513 26.3842 11.0909L21.6832 11.7105C21.3958 11.7488 21.1722 11.4652 21.2744 11.1944L33.3424 -20.6484C33.3973 -20.7927 33.5327 -20.8898 33.6873 -20.8949V-20.8962Z" stroke="#2E5E5E" stroke-width="0.383232" stroke-miterlimit="10"/>
<path d="M10.5934 41.7489L11.151 41.9974C11.2665 42.0494 11.2733 42.2108 11.1617 42.2712L10.6255 42.5626C10.5812 42.5863 10.5514 42.6307 10.5468 42.6812L10.4825 43.2877C10.4695 43.4139 10.3173 43.4697 10.2248 43.3825L9.78195 42.9626C9.74524 42.9282 9.69399 42.9137 9.64505 42.9236L9.04772 43.0498C8.92382 43.0758 8.82363 42.9489 8.87793 42.8341L9.14103 42.2835C9.16244 42.2383 9.16091 42.1848 9.13568 42.1412L8.83128 41.6127C8.7678 41.5026 8.85805 41.368 8.98348 41.3848L9.58845 41.4643C9.63816 41.4712 9.68864 41.4529 9.72229 41.4154L10.1307 40.9626C10.2156 40.8685 10.3716 40.9129 10.3946 41.0376L10.5055 41.6372C10.5146 41.6869 10.5475 41.7282 10.5934 41.7489Z" fill="#2E5E5E"/>
<path d="M46.9346 13.1261L47.4922 13.3746C47.6077 13.4266 47.6146 13.588 47.5029 13.6484L46.9668 13.9398C46.9224 13.9635 46.8926 14.0079 46.888 14.0584L46.8237 14.6649C46.8107 14.7911 46.6585 14.8469 46.566 14.7597L46.1232 14.3398C46.0865 14.3054 46.0352 14.2909 45.9863 14.3008L45.3889 14.427C45.265 14.453 45.1648 14.3261 45.2192 14.2113L45.4822 13.6607C45.5037 13.6155 45.5021 13.562 45.4769 13.5184L45.1725 12.9899C45.109 12.8798 45.1993 12.7452 45.3247 12.762L45.9297 12.8415C45.9794 12.8484 46.0299 12.8301 46.0635 12.7926L46.4719 12.3398C46.5568 12.2457 46.7128 12.2901 46.7358 12.4148L46.8467 13.0144C46.8559 13.0641 46.8888 13.1054 46.9346 13.1261Z" fill="#2E5E5E"/>
<path d="M8.10317 37.8261L8.59648 38.1848C8.69897 38.2598 8.67143 38.4188 8.54983 38.4548L7.96474 38.6276C7.91656 38.6422 7.87831 38.6789 7.86302 38.7271L7.67411 39.3076C7.6351 39.4284 7.47449 39.4514 7.4026 39.3466L7.0569 38.8433C7.0286 38.802 6.98118 38.7768 6.9307 38.7768H6.32038C6.19342 38.7768 6.12229 38.6307 6.19877 38.5305L6.57047 38.0464C6.60106 38.0066 6.61024 37.9538 6.59495 37.9064L6.4068 37.3259C6.36779 37.2051 6.48405 37.0919 6.60336 37.1347L7.1785 37.3382C7.22592 37.355 7.2787 37.3473 7.31923 37.3175L7.8133 36.9596C7.91579 36.8854 8.05958 36.9603 8.05575 37.0873L8.03969 37.6976C8.03816 37.7481 8.06187 37.7955 8.10241 37.8253L8.10317 37.8261Z" fill="#2E5E5E"/>
<path d="M49.6008 17.3837L50.0941 17.7424C50.1966 17.8174 50.169 17.9765 50.0474 18.0124L49.4623 18.1853C49.4142 18.1998 49.3759 18.2365 49.3606 18.2847L49.1717 18.8652C49.1327 18.986 48.9721 19.009 48.9002 18.9042L48.5545 18.4009C48.5262 18.3596 48.4788 18.3344 48.4283 18.3344H47.818C47.691 18.3344 47.6199 18.1883 47.6964 18.0881L48.0681 17.604C48.0987 17.5642 48.1078 17.5114 48.0925 17.464L47.9044 16.8835C47.8654 16.7627 47.9817 16.6495 48.101 16.6923L48.6761 16.8958C48.7235 16.9126 48.7763 16.9049 48.8168 16.8751L49.3109 16.5172C49.4134 16.443 49.5572 16.5179 49.5534 16.6449L49.5373 17.2552C49.5358 17.3057 49.5595 17.3531 49.6 17.383L49.6008 17.3837Z" fill="#2E5E5E"/>
<path d="M6.4825 33.4704L6.89015 33.924C6.97505 34.018 6.91463 34.1687 6.78843 34.1786L6.1804 34.2261C6.12992 34.2299 6.0848 34.2582 6.06032 34.3018L5.75516 34.8303C5.69168 34.9396 5.5303 34.9297 5.48135 34.8119L5.24808 34.2482C5.22896 34.2016 5.18766 34.1679 5.13871 34.1572L4.54215 34.0303C4.41825 34.0035 4.37848 33.8467 4.47485 33.7641L4.9391 33.3679C4.97734 33.335 4.99722 33.2861 4.99187 33.2356L4.92839 32.6284C4.91539 32.5022 5.05229 32.4157 5.16013 32.4823L5.68021 32.8012C5.72304 32.8272 5.77657 32.831 5.82246 32.8104L6.38002 32.5626C6.49551 32.5113 6.62017 32.6146 6.59111 32.7377L6.44885 33.3312C6.43738 33.3802 6.45038 33.4314 6.48403 33.4689L6.4825 33.4704Z" fill="#2E5E5E"/>
<path d="M51.3239 22.1035L51.7316 22.557C51.8165 22.6511 51.7561 22.8018 51.6299 22.8117L51.0218 22.8591C50.9714 22.8629 50.9262 22.8912 50.9018 22.9348L50.5966 23.4633C50.5331 23.5727 50.3717 23.5628 50.3228 23.445L50.0895 22.8813C50.0704 22.8346 50.0291 22.801 49.9801 22.7903L49.3836 22.6633C49.2597 22.6366 49.2199 22.4798 49.3163 22.3972L49.7805 22.001C49.8188 21.9681 49.8387 21.9192 49.8333 21.8687L49.7698 21.2614C49.7568 21.1352 49.8937 21.0488 50.0016 21.1153L50.5216 21.4343C50.5645 21.4603 50.618 21.4641 50.6639 21.4434L51.2215 21.1956C51.3369 21.1444 51.4616 21.2476 51.4325 21.3708L51.2903 21.9643C51.2788 22.0132 51.2918 22.0645 51.3255 22.1019L51.3239 22.1035Z" fill="#2E5E5E"/>
<path d="M5.80335 28.8738L6.10775 29.4023C6.17123 29.5125 6.08098 29.6471 5.95555 29.6302L5.35058 29.5507C5.30086 29.5438 5.25039 29.5622 5.21673 29.5997L4.80832 30.0524C4.72343 30.1465 4.5674 30.1021 4.54446 29.9775L4.43356 29.3779C4.42438 29.3281 4.39149 29.2868 4.3456 29.2662L3.78805 29.0176C3.67256 28.9656 3.66568 28.8042 3.77734 28.7438L4.31348 28.4524C4.35784 28.4287 4.38767 28.3844 4.39226 28.3339L4.4565 27.7274C4.46951 27.6012 4.6217 27.5453 4.71425 27.6325L5.15708 28.0524C5.19379 28.0868 5.24503 28.1014 5.29398 28.0914L5.89131 27.9652C6.01521 27.9392 6.1154 28.0662 6.0611 28.1809L5.798 28.7316C5.77658 28.7767 5.77811 28.8302 5.80335 28.8738Z" fill="#2E5E5E"/>
<path d="M52.0276 27.0779L52.332 27.6064C52.3954 27.7166 52.3052 27.8512 52.1798 27.8344L51.5748 27.7548C51.5251 27.7479 51.4746 27.7663 51.4409 27.8038L51.0325 28.2565C50.9476 28.3506 50.7916 28.3062 50.7687 28.1816L50.6578 27.582C50.6486 27.5322 50.6157 27.4909 50.5698 27.4703L50.0123 27.2217C49.8968 27.1697 49.8899 27.0083 50.0016 26.9479L50.5377 26.6565C50.5821 26.6328 50.6119 26.5885 50.6165 26.538L50.6807 25.9315C50.6937 25.8053 50.8459 25.7495 50.9385 25.8366L51.3813 26.2565C51.418 26.2909 51.4692 26.3055 51.5182 26.2955L52.1155 26.1693C52.2394 26.1433 52.3396 26.2703 52.2853 26.385L52.0222 26.9357C52.0008 26.9808 52.0023 27.0343 52.0276 27.0779Z" fill="#2E5E5E"/>
<path d="M6.094 24.2361L6.28215 24.8166C6.32115 24.9374 6.2049 25.0506 6.08559 25.0078L5.51044 24.8043C5.46303 24.7875 5.41025 24.7951 5.36972 24.825L4.87564 25.1829C4.77316 25.2571 4.62937 25.1821 4.6332 25.0552L4.64926 24.4449C4.65079 24.3944 4.62708 24.347 4.58654 24.3171L4.09323 23.9584C3.99075 23.8835 4.01828 23.7244 4.13989 23.6885L4.72497 23.5156C4.77316 23.5011 4.8114 23.4644 4.8267 23.4162L5.01561 22.8357C5.05461 22.7148 5.21522 22.6919 5.28712 22.7967L5.63282 23.2999C5.66111 23.3412 5.70853 23.3665 5.75901 23.3665H6.36934C6.4963 23.3665 6.56743 23.5125 6.49094 23.6127L6.11924 24.0969C6.08865 24.1366 6.07947 24.1894 6.09477 24.2368L6.094 24.2361Z" fill="#2E5E5E"/>
<path d="M51.6819 32.0901L51.87 32.6706C51.909 32.7914 51.7927 32.9046 51.6734 32.8618L51.0983 32.6583C51.0509 32.6415 50.9981 32.6492 50.9576 32.679L50.4635 33.0369C50.361 33.1111 50.2172 33.0362 50.221 32.9092L50.2371 32.2989C50.2386 32.2484 50.2149 32.201 50.1744 32.1711L49.6811 31.8124C49.5786 31.7375 49.6061 31.5784 49.7277 31.5425L50.3128 31.3696C50.361 31.3551 50.3992 31.3184 50.4145 31.2702L50.6035 30.6897C50.6425 30.5688 50.8031 30.5459 50.875 30.6507L51.2207 31.1539C51.249 31.1952 51.2964 31.2205 51.3469 31.2205H51.9572C52.0841 31.2205 52.1553 31.3665 52.0788 31.4667L51.7071 31.9509C51.6765 31.9906 51.6673 32.0434 51.6826 32.0908L51.6819 32.0901Z" fill="#2E5E5E"/>
<path d="M7.34293 19.7595L7.40641 20.3668C7.41942 20.493 7.28251 20.5794 7.17467 20.5129L6.6546 20.194C6.61177 20.168 6.55823 20.1641 6.51234 20.1848L5.95479 20.4326C5.8393 20.4838 5.71463 20.3806 5.74369 20.2574L5.88595 19.6639C5.89742 19.615 5.88442 19.5637 5.85077 19.5263L5.44312 19.0727C5.35823 18.9787 5.41865 18.828 5.54484 18.818L6.15287 18.7706C6.20335 18.7668 6.24848 18.7385 6.27295 18.6949L6.57811 18.1664C6.64159 18.0571 6.80297 18.067 6.85192 18.1848L7.08519 18.7485C7.10431 18.7951 7.14561 18.8288 7.19456 18.8395L7.79112 18.9664C7.91502 18.9932 7.95479 19.15 7.85842 19.2326L7.39418 19.6288C7.35594 19.6616 7.33605 19.7106 7.3414 19.7611L7.34293 19.7595Z" fill="#2E5E5E"/>
<path d="M50.3021 36.9207L50.3656 37.5279C50.3786 37.6541 50.2417 37.7406 50.1339 37.674L49.6138 37.3551C49.571 37.3291 49.5174 37.3253 49.4716 37.3459L48.914 37.5937C48.7985 37.645 48.6738 37.5417 48.7029 37.4186L48.8452 36.8251C48.8566 36.7761 48.8436 36.7249 48.81 36.6874L48.4023 36.2339C48.3174 36.1398 48.3779 35.9891 48.5041 35.9792L49.1121 35.9318C49.1626 35.9279 49.2077 35.8996 49.2322 35.856L49.5373 35.3276C49.6008 35.2182 49.7622 35.2281 49.8111 35.3459L50.0444 35.9096C50.0635 35.9562 50.1048 35.9899 50.1538 36.0006L50.7503 36.1276C50.8742 36.1543 50.914 36.3111 50.8176 36.3937L50.3534 36.7899C50.3152 36.8228 50.2953 36.8717 50.3006 36.9222L50.3021 36.9207Z" fill="#2E5E5E"/>
<path d="M9.49591 15.6409L9.43167 16.2474C9.41866 16.3736 9.26646 16.4294 9.17392 16.3422L8.73109 15.9223C8.69438 15.8879 8.64314 15.8734 8.59419 15.8833L7.99686 16.0095C7.87296 16.0355 7.77277 15.9086 7.82707 15.7939L8.09017 15.2432C8.11159 15.1981 8.11006 15.1445 8.08482 15.1009L7.78042 14.5724C7.71694 14.4623 7.80719 14.3277 7.93262 14.3445L8.53759 14.4241C8.5873 14.4309 8.63778 14.4126 8.67144 14.3751L9.07985 13.9223C9.16474 13.8283 9.32077 13.8726 9.34371 13.9973L9.45461 14.5969C9.46379 14.6466 9.49668 14.6879 9.54256 14.7086L10.1001 14.9571C10.2156 15.0091 10.2225 15.1705 10.1108 15.2309L9.57469 15.5223C9.53033 15.5461 9.5005 15.5904 9.49591 15.6409Z" fill="#2E5E5E"/>
<path d="M47.9472 41.3589L47.883 41.9654C47.87 42.0916 47.7178 42.1474 47.6252 42.0602L47.1824 41.6404C47.1457 41.6059 47.0944 41.5914 47.0455 41.6014L46.4482 41.7276C46.3243 41.7536 46.2241 41.6266 46.2784 41.5119L46.5415 40.9612C46.5629 40.9161 46.5614 40.8625 46.5361 40.8189L46.2317 40.2905C46.1682 40.1803 46.2585 40.0457 46.3839 40.0625L46.9889 40.1421C47.0386 40.149 47.0891 40.1306 47.1227 40.0931L47.5312 39.6404C47.6161 39.5463 47.7721 39.5906 47.795 39.7153L47.9059 40.3149C47.9151 40.3646 47.948 40.4059 47.9939 40.4266L48.5514 40.6752C48.6669 40.7272 48.6738 40.8885 48.5621 40.949L48.026 41.2404C47.9816 41.2641 47.9518 41.3084 47.9472 41.3589Z" fill="#2E5E5E"/>
<path d="M12.4573 12.0601L12.2684 12.6406C12.2294 12.7614 12.0688 12.7844 11.9969 12.6796L11.6512 12.1763C11.6229 12.135 11.5755 12.1098 11.525 12.1098H10.9147C10.7877 12.1098 10.7166 11.9637 10.7931 11.8635L11.1648 11.3794C11.1953 11.3396 11.2045 11.2868 11.1892 11.2394L11.0011 10.6589C10.9621 10.5381 11.0783 10.4249 11.1976 10.4677L11.7728 10.6712C11.8202 10.688 11.873 10.6803 11.9135 10.6505L12.4076 10.2926C12.5101 10.2184 12.6539 10.2933 12.65 10.4203L12.634 11.0306C12.6324 11.0811 12.6562 11.1285 12.6967 11.1584L13.19 11.5171C13.2925 11.592 13.265 11.7511 13.1433 11.787L12.5583 11.9599C12.5101 11.9744 12.4718 12.0111 12.4565 12.0593L12.4573 12.0601Z" fill="#2E5E5E"/>
<path d="M44.722 45.2102L44.5331 45.7907C44.4941 45.9116 44.3335 45.9345 44.2616 45.8297L43.9159 45.3265C43.8876 45.2852 43.8401 45.2599 43.7897 45.2599H43.1793C43.0524 45.2599 42.9813 45.1139 43.0577 45.0137L43.4294 44.5295C43.46 44.4898 43.4692 44.437 43.4539 44.3896L43.2658 43.8091C43.2268 43.6882 43.343 43.575 43.4623 43.6179L44.0375 43.8213C44.0849 43.8381 44.1377 43.8305 44.1782 43.8007L44.6723 43.4427C44.7748 43.3685 44.9185 43.4435 44.9147 43.5704L44.8987 44.1808C44.8971 44.2312 44.9208 44.2787 44.9614 44.3085L45.4547 44.6672C45.5572 44.7422 45.5296 44.9012 45.408 44.9372L44.8229 45.11C44.7748 45.1246 44.7365 45.1613 44.7212 45.2095L44.722 45.2102Z" fill="#2E5E5E"/>
<path d="M16.0986 9.17287L15.7934 9.70136C15.73 9.81073 15.5686 9.80079 15.5196 9.68301L15.2864 9.11933C15.2672 9.07268 15.2259 9.03903 15.177 9.02832L14.5804 8.90136C14.4565 8.87459 14.4168 8.7178 14.5131 8.6352L14.9774 8.23903C15.0156 8.20614 15.0355 8.15719 15.0302 8.10671L14.9667 7.49944C14.9537 7.37325 15.0906 7.28682 15.1984 7.35336L15.7185 7.67229C15.7613 7.6983 15.8149 7.70212 15.8607 7.68147L16.4183 7.43367C16.5338 7.38243 16.6585 7.48568 16.6294 7.60881L16.4871 8.20231C16.4757 8.25126 16.4887 8.30251 16.5223 8.33998L16.93 8.79352C17.0149 8.88759 16.9544 9.03826 16.8282 9.04821L16.2202 9.09562C16.1697 9.09945 16.1246 9.12775 16.1001 9.17134L16.0986 9.17287Z" fill="#2E5E5E"/>
<path d="M40.7663 48.3074L40.4612 48.8359C40.3977 48.9453 40.2363 48.9353 40.1874 48.8175L39.9541 48.2539C39.935 48.2072 39.8937 48.1736 39.8447 48.1628L39.2482 48.0359C39.1243 48.0091 39.0845 47.8523 39.1809 47.7697L39.6451 47.3735C39.6834 47.3407 39.7032 47.2917 39.6979 47.2412L39.6344 46.634C39.6214 46.5078 39.7583 46.4213 39.8662 46.4879L40.3862 46.8068C40.4291 46.8328 40.4826 46.8366 40.5285 46.816L41.086 46.5682C41.2015 46.5169 41.3262 46.6202 41.2971 46.7433L41.1549 47.3368C41.1434 47.3858 41.1564 47.437 41.1901 47.4745L41.5977 47.928C41.6826 48.0221 41.6222 48.1728 41.496 48.1827L40.888 48.2301C40.8375 48.234 40.7924 48.2623 40.7679 48.3059L40.7663 48.3074Z" fill="#2E5E5E"/>
<path d="M20.2608 7.10649L19.8524 7.55927C19.7675 7.65334 19.6114 7.60898 19.5885 7.48431L19.4776 6.8847C19.4684 6.83498 19.4355 6.79368 19.3896 6.77303L18.8321 6.52446C18.7166 6.47246 18.7097 6.31108 18.8214 6.25066L19.3575 5.95926C19.4019 5.93555 19.4317 5.89119 19.4363 5.84072L19.5005 5.23421C19.5135 5.10802 19.6657 5.05219 19.7583 5.13937L20.2011 5.55926C20.2378 5.59368 20.2891 5.60821 20.338 5.59827L20.9353 5.47207C21.0592 5.44607 21.1594 5.57303 21.1051 5.68775L20.842 6.23842C20.8206 6.28355 20.8221 6.33708 20.8474 6.38068L21.1518 6.90917C21.2153 7.0193 21.125 7.15391 20.9996 7.13709L20.3946 7.05754C20.3449 7.05066 20.2944 7.06902 20.2608 7.10649Z" fill="#2E5E5E"/>
<path d="M36.2531 50.5137L35.8447 50.9665C35.7598 51.0606 35.6038 51.0162 35.5809 50.8915L35.47 50.2919C35.4608 50.2422 35.4279 50.2009 35.382 50.1803L34.8245 49.9317C34.709 49.8797 34.7021 49.7183 34.8138 49.6579L35.3499 49.3665C35.3942 49.3428 35.4241 49.2984 35.4287 49.2479L35.4929 48.6414C35.5059 48.5152 35.6581 48.4594 35.7507 48.5466L36.1935 48.9665C36.2302 49.0009 36.2814 49.0154 36.3304 49.0055L36.9277 48.8793C37.0516 48.8533 37.1518 48.9803 37.0975 49.095L36.8344 49.6456C36.813 49.6908 36.8145 49.7443 36.8398 49.7879L37.1442 50.3164C37.2076 50.4265 37.1174 50.5611 36.992 50.5443L36.387 50.4648C36.3373 50.4579 36.2868 50.4762 36.2531 50.5137Z" fill="#2E5E5E"/>
<path d="M25.1153 31.8337V37.0993C25.1153 38.117 25.2901 38.8254 25.6396 39.2233C25.9891 39.6226 26.7056 39.8216 27.7891 39.8216H28.183V41.6431H16.1904V39.8216H16.6327C17.7485 39.8216 18.4731 39.6172 18.8065 39.2059C19.1399 38.7959 19.3066 38.0928 19.3066 37.098V23.9413C19.3066 22.9236 19.1304 22.2165 18.7809 21.8173C18.4301 21.418 17.7149 21.219 16.6314 21.219H16.1891V19.3975L25.114 19.3814L27.1156 19.3652C29.0945 19.3652 30.5409 19.4311 31.4551 19.5615C32.3678 19.6932 33.2685 20.0065 34.1531 20.5052C35.039 21.0026 35.7367 21.6842 36.2448 22.5472C36.753 23.4116 37.0071 24.3405 37.0071 25.3366C37.0071 27.9836 35.5095 29.793 32.513 30.7663C33.3116 31.2691 34.5523 32.8446 36.2368 35.4915C37.5488 37.5362 38.4845 38.7703 39.0423 39.1911C39.6002 39.6118 40.2119 39.8229 40.88 39.8229V41.6444H33.9246C33.29 40.8903 32.1151 38.976 30.3971 35.9029C29.5327 34.3502 28.9264 33.3487 28.5769 32.9011C28.226 32.4521 27.8684 32.1657 27.5015 32.0394C27.1345 31.9143 26.34 31.8458 25.1153 31.835V31.8337ZM25.1153 29.832C26.9637 29.8535 28.2099 29.7419 28.8552 29.4959C29.5004 29.2499 30.0086 28.8077 30.381 28.1678C30.752 27.5279 30.9388 26.6608 30.9388 25.5679C30.9388 24.0044 30.5692 22.9209 29.8311 22.32C29.0931 21.7191 27.8214 21.418 26.0173 21.418C25.7875 21.418 25.4863 21.4234 25.1153 21.4341V29.8334V29.832Z" fill="#2E5E5E"/>
<path d="M21.0205 13.0889C21.4319 13.5621 21.975 13.7987 22.6525 13.7987C23.2131 13.7987 24.1608 13.5043 25.4944 12.9141C27.9693 11.8212 29.8244 11.2754 31.0625 11.2754C32.2993 11.2754 33.3317 11.7351 34.1585 12.6533C34.9852 13.5715 35.4329 15.0368 35.5001 17.0465H34.3399C34.1275 15.3742 33.3451 14.538 31.9914 14.538C31.3825 14.538 30.4401 14.8136 29.1643 15.3648C27.4436 16.1095 26.2566 16.576 25.6046 16.7642C24.9526 16.9524 24.3114 17.0465 23.6836 17.0465C22.4079 17.0465 21.3512 16.5706 20.5151 15.6189C19.6789 14.6671 19.2272 13.2193 19.16 11.2767H20.3201C20.3779 12.0121 20.6132 12.6157 21.0232 13.0889H21.0205Z" fill="#2E5E5E"/>
</g>
<rect x="1.12" y="1.12" width="53.76" height="53.76" rx="26.88" stroke="#2E5E5E" stroke-width="2.24"/>
<defs>
<clipPath id="clip0_89_14660">
<rect width="56" height="56" rx="28" fill="white"/>
</clipPath>
</defs>
</svg>
