<svg width="64" height="64" viewBox="0 0 64 64" fill="none" xmlns="http://www.w3.org/2000/svg">
<g clip-path="url(#clip0_8_24779)">
<path d="M32.3045 44.2856C32.0008 44.2856 31.6936 44.2018 31.4248 44.0308L19.6263 36.613C16.139 34.4209 14.0586 30.6544 14.0586 26.5354V7.65071C14.0586 5.19675 16.0553 3.20007 18.5092 3.20007H46.1032C48.5572 3.20007 50.5538 5.19675 50.5538 7.65071V17.6341C50.5538 18.5452 49.8138 19.2852 48.9027 19.2852C47.9917 19.2852 47.2516 18.5452 47.2516 17.6341V7.65071C47.2516 7.0189 46.735 6.50227 46.1032 6.50227H18.5092C17.8774 6.50227 17.3608 7.0189 17.3608 7.65071V26.5389C17.3608 29.513 18.8653 32.2357 21.3856 33.8205L32.308 40.6867L43.2304 33.8205C45.7506 32.2357 47.2551 29.5164 47.2551 26.5389C47.2551 25.6278 47.9951 24.8878 48.9062 24.8878C49.8173 24.8878 50.5573 25.6278 50.5573 26.5389C50.5573 30.6579 48.4769 34.4244 44.9897 36.6165L33.1911 44.0343C32.9223 44.2018 32.6186 44.2891 32.3114 44.2891L32.3045 44.2856Z" fill="#080D00"/>
<path d="M28.4121 41.0042L23.5356 45.3117C22.2126 46.4811 21.4517 48.1636 21.4517 49.9299V59.1489H43.1603V49.9299C43.1603 48.1636 42.4028 46.4811 41.0764 45.3117L36.1999 41.0042H28.4156H28.4121Z" fill="#EF8C48"/>
<path d="M23.1025 57.4978H41.5054V49.93C41.5054 48.6384 40.9504 47.4062 39.98 46.551L35.5713 42.6588H29.0367L24.6279 46.551C23.6575 47.4062 23.1025 48.6384 23.1025 49.93V57.4978ZM43.1566 60.8H21.4514C20.5403 60.8 19.8003 60.06 19.8003 59.1489V49.93C19.8003 47.6889 20.7637 45.5561 22.4428 44.0726L27.3193 39.7651C27.6229 39.4998 28.0104 39.3531 28.4118 39.3531H36.1961C36.5975 39.3531 36.9885 39.4998 37.2887 39.7651L42.1652 44.0726C43.8442 45.5561 44.8076 47.6889 44.8076 49.93V59.1489C44.8076 60.06 44.0676 60.8 43.1566 60.8Z" fill="#080D00"/>
<path d="M28.4121 41.0042L23.5356 45.3117C22.2126 46.4811 21.4517 48.1636 21.4517 49.9299V59.1489H43.1603V49.9299C43.1603 48.1636 42.4028 46.4811 41.0764 45.3117L36.1999 41.0042H28.4156H28.4121Z" fill="#EF8C48"/>
<path d="M23.1025 57.4978H41.5054V49.93C41.5054 48.6384 40.9504 47.4062 39.98 46.551L35.5713 42.6588H29.0367L24.6279 46.551C23.6575 47.4062 23.1025 48.6384 23.1025 49.93V57.4978ZM43.1566 60.8H21.4514C20.5403 60.8 19.8003 60.06 19.8003 59.1489V49.93C19.8003 47.6889 20.7637 45.5561 22.4428 44.0726L27.3193 39.7651C27.6229 39.4998 28.0104 39.3531 28.4118 39.3531H36.1961C36.5975 39.3531 36.9885 39.4998 37.2887 39.7651L42.1652 44.0726C43.8442 45.5561 44.8076 47.6889 44.8076 49.93V59.1489C44.8076 60.06 44.0676 60.8 43.1566 60.8Z" fill="#2E5E5E"/>
<path d="M30.9917 21.2541L30.2586 21.7079C30.0317 21.858 29.8048 21.9104 29.6268 21.9104C28.8938 21.9104 28.3911 21.1285 28.3911 20.3466C28.3911 19.816 28.618 19.3133 29.1242 19.0096L32.4543 16.992C32.6567 16.8663 32.9081 16.814 33.1873 16.814C33.9937 16.814 34.9292 17.2922 34.9292 18.0497V34.0929C34.9292 34.8993 33.9448 35.3042 32.9604 35.3042C31.9761 35.3042 30.9917 34.8993 30.9917 34.0929V21.2541Z" fill="#080D00"/>
<path d="M48.8575 60.8H15.7517C14.8406 60.8 14.1006 60.06 14.1006 59.1489C14.1006 58.2378 14.8406 57.4978 15.7517 57.4978H48.854C49.765 57.4978 50.5051 58.2378 50.5051 59.1489C50.5051 60.06 49.765 60.8 48.854 60.8H48.8575Z" fill="#2E5E5E"/>
<path d="M56.6625 23.7429C56.1773 23.7429 55.692 23.5299 55.3674 23.118C54.8019 22.4024 54.9206 21.3657 55.6362 20.7967C56.3937 20.1963 56.8265 19.2992 56.8265 18.3358C56.8265 16.6044 55.4198 15.1976 53.6884 15.1976C51.957 15.1976 50.5502 16.6044 50.5502 18.3358C50.5502 19.2469 49.8102 19.9869 48.8991 19.9869C47.9881 19.9869 47.248 19.2469 47.248 18.3358C47.248 14.7857 50.1383 11.8954 53.6884 11.8954C57.2384 11.8954 60.1287 14.7857 60.1287 18.3358C60.1287 20.315 59.2386 22.1546 57.6887 23.3833C57.385 23.6242 57.022 23.7394 56.6625 23.7394V23.7429Z" fill="#2E5E5E"/>
<path d="M7.94624 23.7428C7.5867 23.7428 7.22367 23.6276 6.91998 23.3868C5.37011 22.158 4.47998 20.3184 4.47998 18.3392C4.47998 14.7892 7.37028 11.8989 10.9203 11.8989C14.4704 11.8989 17.3607 14.7892 17.3607 18.3392C17.3607 19.2503 16.6206 19.9903 15.7096 19.9903C14.7985 19.9903 14.0585 19.2503 14.0585 18.3392C14.0585 16.6078 12.6517 15.2011 10.9203 15.2011C9.18893 15.2011 7.78218 16.6078 7.78218 18.3392C7.78218 19.3026 8.21503 20.1997 8.97251 20.8001C9.6881 21.3656 9.80678 22.4059 9.24129 23.1215C8.91666 23.5334 8.43145 23.7463 7.94624 23.7463V23.7428Z" fill="#2E5E5E"/>
<path d="M48.899 11.8537V7.65086C48.899 6.10448 47.6459 4.85132 46.0995 4.85132H18.509C16.9626 4.85132 15.7095 6.10448 15.7095 7.65086V11.8537H48.9025H48.899Z" fill="#EF8C48"/>
<path d="M17.3608 10.2024H47.2481V7.65071C47.2481 7.0189 46.7315 6.50227 46.0997 6.50227H18.5092C17.8774 6.50227 17.3608 7.0189 17.3608 7.65071V10.2024ZM48.8992 13.5046H15.7097C14.7986 13.5046 14.0586 12.7646 14.0586 11.8535V7.65071C14.0586 5.19675 16.0553 3.20007 18.5092 3.20007H46.1032C48.5572 3.20007 50.5538 5.19675 50.5538 7.65071V11.8535C50.5538 12.7646 49.8138 13.5046 48.9027 13.5046H48.8992Z" fill="#2E5E5E"/>
</g>
<defs>
<clipPath id="clip0_8_24779">
<rect width="55.6487" height="57.6" fill="white" transform="translate(4.47998 3.20001)"/>
</clipPath>
</defs>
</svg>
