<svg width="64" height="64" viewBox="0 0 64 64" fill="none" xmlns="http://www.w3.org/2000/svg">
<g clip-path="url(#clip0_8_24769)">
<path d="M45.6959 25.139C43.3432 25.139 41.1336 25.7604 39.2241 26.846V31.2059C39.2241 33.6982 37.203 35.7194 34.7107 35.7194H32.8152C32.6512 36.5432 32.5674 37.3949 32.5674 38.2676C32.5674 45.5212 38.4457 51.3996 45.6994 51.3996C52.9531 51.3996 58.8314 45.5212 58.8314 38.2676C58.8314 31.0139 52.9531 25.1356 45.6994 25.1356L45.6959 25.139Z" fill="#EF8C48"/>
<path d="M34.3686 37.4961C34.3511 37.7544 34.3406 38.0127 34.3406 38.2675C34.3406 44.5298 39.4336 49.6228 45.6959 49.6228C51.9582 49.6228 57.0511 44.5298 57.0511 38.2675C57.0511 32.0052 51.9582 26.9123 45.6959 26.9123C44.0727 26.9123 42.4705 27.2614 41.0009 27.9281V31.2024C41.0009 34.6721 38.1769 37.4926 34.7107 37.4926H34.3686V37.4961ZM45.6959 53.1798C37.4753 53.1798 30.7871 46.4916 30.7871 38.271C30.7871 37.3041 30.8814 36.3337 31.0699 35.3772C31.2339 34.5429 31.9635 33.9425 32.8117 33.9425H34.7072C36.2186 33.9425 37.4439 32.7138 37.4439 31.2058V26.846C37.4439 26.2072 37.786 25.6172 38.3445 25.2996C40.5785 24.0325 43.1197 23.3622 45.6924 23.3622C53.913 23.3622 60.6012 30.0504 60.6012 38.271C60.6012 46.4916 53.913 53.1798 45.6924 53.1798H45.6959Z" fill="#080D00"/>
<path d="M46.31 39.5664V41.7097C46.8546 41.5805 47.2874 41.2768 47.2874 40.7008C47.2874 40.1738 46.886 39.8352 46.31 39.5629V39.5664ZM45.4164 36.6063V34.7003C44.6973 34.8435 44.3936 35.2135 44.3936 35.5974C44.3936 36.0617 44.809 36.3514 45.4164 36.6063ZM45.2558 43.9996C43.336 43.9367 41.7651 42.9419 41.7651 41.9191C41.7651 41.3746 42.2469 40.5752 42.8542 40.5752C43.5279 40.5752 44.069 41.5177 45.2558 41.7271V39.1335C43.7828 38.575 42.0549 37.8839 42.0549 35.8348C42.0549 33.7858 43.5594 32.8258 45.2558 32.585V32.1382C45.2558 31.9148 45.5107 31.7053 45.8632 31.7053C46.1669 31.7053 46.4706 31.9148 46.4706 32.1382V32.5396C47.462 32.571 49.3365 32.8293 49.3365 33.9324C49.3365 34.3652 49.0467 35.2449 48.3451 35.2449C47.818 35.2449 47.5143 34.7318 46.4741 34.6515V36.9867C47.9297 37.5313 49.6262 38.2818 49.6262 40.4425C49.6262 42.4287 48.3451 43.6261 46.4741 43.9332V44.3975C46.4741 44.6209 46.1704 44.8303 45.8667 44.8303C45.5141 44.8303 45.2593 44.6209 45.2593 44.3975V43.9961L45.2558 43.9996Z" fill="#080D00"/>
<path d="M22.2 36.435C15.6026 36.435 10.2339 31.0663 10.2339 24.4689V20.2766C10.2339 19.2957 11.0298 18.4998 12.0107 18.4998H24.5981C25.579 18.4998 26.3749 19.2957 26.3749 20.2766C26.3749 21.2575 25.579 22.0533 24.5981 22.0533H13.7874V24.4689C13.7874 29.108 17.5609 32.8815 22.2 32.8815C26.8391 32.8815 30.6126 29.108 30.6126 24.4689V20.2766C30.6126 19.2957 31.4085 18.4998 32.3893 18.4998C33.3702 18.4998 34.1661 19.2957 34.1661 20.2766V24.4689C34.1661 31.0663 28.7974 36.435 22.2 36.435Z" fill="#080D00"/>
<path d="M29.1535 40.048L22.2 47.0015L15.2465 40.048C10.9076 42.495 7.96143 47.1481 7.96143 52.4575V59.0235H36.442V52.4575C36.442 47.1481 33.4959 42.495 29.1569 40.048H29.1535Z" fill="#EF8C48"/>
<path d="M9.73468 57.2468H34.6618V52.4575C34.6618 48.4223 32.6755 44.6419 29.4013 42.3101L23.4531 48.2582C22.7585 48.9529 21.6345 48.9529 20.9398 48.2582L14.9917 42.3101C11.7174 44.6419 9.73119 48.4223 9.73119 52.4575V57.2468H9.73468ZM36.4385 60.8003H7.95792C6.97703 60.8003 6.18115 60.0044 6.18115 59.0235V52.4575C6.18115 46.6979 9.31929 41.3501 14.3703 38.4982C15.065 38.1073 15.9342 38.226 16.4997 38.788L22.1965 44.4848L27.8933 38.788C28.4588 38.2225 29.328 38.1038 30.0226 38.4982C35.0737 41.3466 38.2118 46.6979 38.2118 52.4575V59.0235C38.2118 60.0044 37.4159 60.8003 36.435 60.8003H36.4385Z" fill="#080D00"/>
<path d="M34.7106 37.4961H33.1118C32.1309 37.4961 31.3351 36.7002 31.3351 35.7194C31.3351 34.7385 32.1309 33.9426 33.1118 33.9426H34.7106C36.222 33.9426 37.4473 32.7139 37.4473 31.2059V22.0009C37.4473 13.5918 30.6055 6.75005 22.1999 6.75005C13.7943 6.75005 6.94904 13.5953 6.94904 22.0044V31.2094C6.94904 32.7208 8.17776 33.9461 9.68574 33.9461H11.2845C12.2654 33.9461 13.0612 34.742 13.0612 35.7228C13.0612 36.7037 12.2654 37.4996 11.2845 37.4996H9.68574C6.21599 37.4996 3.39551 34.6756 3.39551 31.2094V22.0044C3.39551 11.6335 11.829 3.20001 22.1964 3.20001C32.5638 3.20001 41.0008 11.6335 41.0008 22.0044V31.2094C41.0008 34.6791 38.1768 37.4996 34.7106 37.4996V37.4961Z" fill="#080D00"/>
<path d="M34.7106 37.4961H33.1118C32.1309 37.4961 31.3351 36.7002 31.3351 35.7194C31.3351 34.7385 32.1309 33.9426 33.1118 33.9426H34.7106C36.222 33.9426 37.4473 32.7139 37.4473 31.2059V22.0009C37.4473 13.5918 30.6055 6.75005 22.1999 6.75005C13.7943 6.75005 6.94904 13.5953 6.94904 22.0044V31.2094C6.94904 32.7208 8.17776 33.9461 9.68574 33.9461H11.2845C12.2654 33.9461 13.0612 34.742 13.0612 35.7228C13.0612 36.7037 12.2654 37.4996 11.2845 37.4996H9.68574C6.21599 37.4996 3.39551 34.6756 3.39551 31.2094V22.0044C3.39551 11.6335 11.829 3.20001 22.1964 3.20001C32.5638 3.20001 41.0008 11.6335 41.0008 22.0044V31.2094C41.0008 34.6791 38.1768 37.4996 34.7106 37.4996V37.4961Z" fill="#080D00"/>
</g>
<defs>
<clipPath id="clip0_8_24769">
<rect width="57.209" height="57.6" fill="white" transform="translate(3.39551 3.20001)"/>
</clipPath>
</defs>
</svg>
