<svg width="64" height="64" viewBox="0 0 64 64" fill="none" xmlns="http://www.w3.org/2000/svg">
<g clip-path="url(#clip0_8_24767)">
<path d="M35.4297 26.3994C33.3807 26.3994 32.4626 27.5478 32.0996 28.2215C32.0542 28.3053 31.932 28.3053 31.8867 28.2215C31.5271 27.5478 30.6126 26.3994 28.5635 26.3994C26.2317 26.3994 24.1792 27.9911 24.1792 30.8989C24.1792 32.0752 24.4201 33.084 25.0833 34.208C26.4412 36.5014 30.9093 39.4755 31.8273 40.0585C31.9285 40.1248 32.0577 40.1248 32.1589 40.0585C33.077 39.4755 37.5486 36.5189 38.9134 34.208C39.5802 33.084 39.8175 32.0752 39.8175 30.8989C39.8175 27.9911 37.7615 26.3994 35.4297 26.3994Z" fill="#EF8C48"/>
<path d="M28.567 27.9911C27.2789 27.9911 25.7744 28.7521 25.7744 30.8988C25.7744 31.8518 25.9734 32.5779 26.4586 33.3982C27.2929 34.8119 30.0086 36.9238 31.9983 38.2642C33.988 36.9273 36.7038 34.8189 37.5485 33.3982C38.0337 32.5779 38.2292 31.8553 38.2292 30.8988C38.2292 28.7521 36.7212 27.9911 35.4332 27.9911C34.5046 27.9911 33.8554 28.3227 33.5063 28.9755C33.2061 29.534 32.6301 29.8796 31.9948 29.8796C31.3595 29.8796 30.7801 29.534 30.4834 28.9755C30.1343 28.3262 29.492 27.9946 28.5635 27.9946L28.567 27.9911ZM31.9948 41.706C31.6318 41.706 31.2792 41.6013 30.9721 41.4058C30.0365 40.8089 25.2997 37.7022 23.7149 35.0213C22.9365 33.7019 22.5874 32.4313 22.5874 30.8988C22.5874 27.3697 25.1007 24.8041 28.5635 24.8041C30.1273 24.8041 31.2339 25.3172 31.9948 25.9211C32.7558 25.3172 33.8624 24.8041 35.4297 24.8041C38.8959 24.8041 41.4092 27.3663 41.4092 30.8988C41.4092 32.4313 41.0637 33.7054 40.2852 35.0213C38.69 37.7197 33.9461 40.8124 33.0106 41.4058C32.7069 41.6013 32.3544 41.7025 31.9913 41.7025L31.9948 41.706Z" fill="#080D00"/>
<path d="M17.8994 57.5851C16.9883 57.5851 15.6828 57.1662 12.9042 54.056C11.5324 52.5201 10.4084 51.0086 10.3595 50.9458C10.3176 50.89 10.2792 50.8306 10.2443 50.7713C9.70323 49.7974 9.41699 48.6943 9.41699 47.5808V39.9641C9.41699 39.0844 10.1291 38.3723 11.0088 38.3723H20.7338C22.2313 38.3723 23.6416 38.9518 24.7062 39.999L29.6875 44.8999C31.2827 46.4952 31.2827 49.0818 29.6979 50.6666C28.1027 52.2618 25.5196 52.2618 23.9313 50.6735L19.0653 45.8075C18.8209 45.8075 18.4754 45.804 17.9797 45.8005C17.1 45.797 16.3914 45.0779 16.3949 44.2018C16.3984 43.3256 17.1105 42.617 17.9867 42.617H17.9936C18.594 42.617 19.0339 42.624 19.3236 42.6275C19.924 42.6345 20.3952 42.6414 20.8595 43.1057L26.1793 48.4255C26.5249 48.7711 27.0904 48.7711 27.436 48.4255C27.7885 48.073 27.7885 47.5075 27.443 47.1619L22.4722 42.2714C22.0044 41.8107 21.3866 41.5593 20.7338 41.5593H12.6005V47.5843C12.6005 48.1253 12.7332 48.6629 12.981 49.1446C14.8834 51.6893 17.1803 54.1014 17.9901 54.4051H30.9267C31.7295 54.4051 32.7174 53.9583 33.6564 53.501C34.4278 53.1275 40.3271 49.1341 44.2716 46.4184C44.2995 46.4009 44.324 46.3835 44.3519 46.366C44.8546 46.0623 45.0186 45.4061 44.7149 44.9034C44.5683 44.6591 44.3344 44.488 44.0587 44.4182C43.7899 44.3519 43.5141 44.3903 43.2768 44.5264L36.0685 49.3052C35.3354 49.7904 34.3476 49.5914 33.8623 48.8584C33.3771 48.1253 33.5761 47.1375 34.3092 46.6522L41.5524 41.849C41.5733 41.8351 41.5908 41.8246 41.6117 41.8107C42.5856 41.2242 43.7271 41.0532 44.8266 41.3254C45.9297 41.5977 46.8582 42.2854 47.4447 43.2558C48.6455 45.249 48.0136 47.8391 46.0414 49.0608C44.3414 50.2302 36.2989 55.7525 35.0422 56.3634C33.7681 56.9812 32.3997 57.5816 30.9232 57.5816H17.8959L17.8994 57.5851Z" fill="#080D00"/>
<path d="M4.79199 38.4877H13.0196V54.3704H4.79199V38.4877Z" fill="#EF8C48"/>
<path d="M6.38371 52.7784H11.4278V40.0792H6.38371V52.7784ZM13.0195 55.9619H4.79195C3.9123 55.9619 3.2002 55.2498 3.2002 54.3701V38.484C3.2002 37.6043 3.9123 36.8922 4.79195 36.8922H13.0195C13.8992 36.8922 14.6113 37.6043 14.6113 38.484V54.3701C14.6113 55.2498 13.8992 55.9619 13.0195 55.9619Z" fill="#080D00"/>
<path d="M52.9879 25.2752H43.2628C41.7653 25.2752 40.3551 24.6958 39.2904 23.6486L34.3092 18.7476C32.714 17.1524 32.714 14.5658 34.2987 12.981C35.894 11.3858 38.4771 11.3858 40.0654 12.974L44.9314 17.8401C45.1757 17.8401 45.5213 17.8435 46.017 17.847C46.8967 17.8505 47.6053 18.5696 47.6018 19.4458C47.5983 20.3219 46.8862 21.0306 46.01 21.0306H46.003C45.4026 21.0306 44.9628 21.0236 44.6731 21.0201C44.0727 21.0131 43.6014 21.0061 43.1372 20.5419L37.8174 15.222C37.4718 14.8764 36.9063 14.8764 36.5607 15.222C36.2081 15.5746 36.2081 16.1401 36.5537 16.4857L41.5245 21.3761C41.9922 21.8369 42.6101 22.0882 43.2628 22.0882H51.3962V16.0633C51.3962 15.5222 51.2635 14.9847 51.0157 14.5029C49.1133 11.9582 46.8164 9.54615 46.0065 9.24246H33.07C32.2671 9.24246 31.2793 9.68927 30.3403 10.1466C29.5688 10.5201 23.6696 14.5134 19.7251 17.2292C19.6971 17.2466 19.6727 17.2641 19.6448 17.2815C19.1421 17.5852 18.9781 18.2415 19.2818 18.7441C19.4284 18.9885 19.6622 19.1595 19.938 19.2294C20.2068 19.2957 20.4826 19.2573 20.7199 19.1211L27.9282 14.3424C28.6613 13.8572 29.6491 14.0561 30.1343 14.7892C30.6195 15.5222 30.4206 16.5101 29.6875 16.9953L22.4443 21.7985C22.4234 21.8125 22.4059 21.8229 22.385 21.8369C21.4146 22.4233 20.2696 22.5944 19.1701 22.3221C18.067 22.0498 17.1385 21.3622 16.552 20.3918C15.3512 18.3986 15.983 15.8085 17.9553 14.5867C19.6553 13.4173 27.6978 7.89506 28.9545 7.28418C30.2251 6.66633 31.5934 6.06244 33.07 6.06244H46.0973C47.0084 6.06244 48.3139 6.48132 51.0925 9.59153C52.4643 11.1274 53.5883 12.6389 53.6372 12.7017C53.6791 12.7576 53.7175 12.8169 53.7524 12.8763C54.2935 13.8502 54.5797 14.9532 54.5797 16.0668V23.6835C54.5797 24.5631 53.8676 25.2752 52.9879 25.2752Z" fill="#080D00"/>
<path d="M50.981 9.27734H59.2085V25.16H50.981V9.27734Z" fill="#EF8C48"/>
<path d="M52.5727 23.5682H57.6167V10.8691H52.5727V23.5682ZM59.2085 26.7517H50.9809C50.1013 26.7517 49.3892 26.0396 49.3892 25.16V9.2773C49.3892 8.39765 50.1013 7.68555 50.9809 7.68555H59.2085C60.0881 7.68555 60.8002 8.39765 60.8002 9.2773V25.1635C60.8002 26.0431 60.0881 26.7552 59.2085 26.7552V26.7517Z" fill="#080D00"/>
</g>
<defs>
<clipPath id="clip0_8_24767">
<rect width="57.6" height="51.5227" fill="white" transform="translate(3.2002 6.06238)"/>
</clipPath>
</defs>
</svg>
