<svg width="64" height="64" viewBox="0 0 64 64" fill="none" xmlns="http://www.w3.org/2000/svg">
<g clip-path="url(#clip0_8_24785)">
<path d="M31.9984 47.2504C31.9565 47.2504 31.9181 47.2504 31.8763 47.2504C26.5111 47.2212 21.4356 45.2512 17.9484 41.8386C15.1035 39.0555 13.5361 35.5031 13.5361 31.837C13.5361 28.6896 14.6636 25.6617 16.7999 23.0797C18.8874 20.5589 21.7847 18.6326 25.1811 17.5048C27.3523 16.7849 29.6457 16.4207 31.9984 16.4207C35.6427 16.4207 39.1683 17.3066 42.1983 18.9852C47.375 21.8528 50.4642 26.6584 50.4642 31.837C50.4642 32.4373 50.4223 33.0435 50.3386 33.6438C49.8673 37.0214 48.0242 40.2212 45.1514 42.6546C44.4881 43.2171 43.406 43.2229 42.7358 42.6692C42.0621 42.1155 42.0551 41.2121 42.7184 40.6525C45.0606 38.668 46.5616 36.0626 46.9456 33.3116C47.0154 32.822 47.0503 32.3237 47.0503 31.8341C47.0503 27.6113 44.53 23.6975 40.3133 21.3603C37.8488 19.9935 34.976 19.2737 32.0054 19.2737C30.0855 19.2737 28.218 19.5709 26.4482 20.1567C20.6816 22.0684 16.957 26.6525 16.957 31.8341C16.957 34.8212 18.2346 37.715 20.5524 39.9823C23.4008 42.7683 27.5478 44.3769 31.9321 44.3944C31.9565 44.3944 31.9775 44.3944 31.9984 44.3944C32.9374 44.4003 33.7054 45.0356 33.7054 45.8224C33.7054 46.6093 32.9479 47.2504 32.0054 47.2504H31.9984Z" fill="#2E5E5E"/>
<path d="M39.4967 24.6651C36.177 26.2796 36.1456 30.5053 34.4282 32.1984C32.7108 33.8945 25.5688 29.7068 25.7852 27.1247C25.9982 24.5427 24.9963 24.8662 24.4273 24.4611C24.0643 24.2047 25.9982 20.9203 25.8166 18.9707C27.7295 18.3354 29.8205 17.8429 32.0022 17.8429C35.423 17.8429 38.6031 18.8425 41.256 20.3113C41.4131 22.054 41.1548 23.855 39.4967 24.6593V24.6651Z" fill="#EF8C48"/>
<path d="M26.3086 23.7441C27.2965 24.3998 27.6351 25.446 27.4885 27.2237C27.471 27.4161 27.6979 28.0077 28.6578 28.8703C30.1658 30.2196 32.2707 31.1609 33.2272 31.1638C33.6286 30.6858 33.9812 29.8116 34.3198 28.9664C35.0842 27.0635 36.0337 24.6971 38.6343 23.4323C39.3848 23.068 39.5837 22.0772 39.5837 21.1242C37.1507 19.9119 34.5466 19.2737 31.9984 19.2737C30.6022 19.2737 29.1465 19.501 27.478 19.9789C27.3174 21.1388 26.8392 22.3774 26.4622 23.3478C26.4133 23.4731 26.361 23.6101 26.3086 23.747V23.7441ZM33.2341 34.0168C30.8325 34.0168 27.8829 32.3586 26.1585 30.8141C25.1427 29.9048 23.9559 28.5089 24.078 27.0256C24.1304 26.4107 24.092 26.0843 24.0606 25.9298C23.8651 25.854 23.5928 25.7433 23.3206 25.551C22.2943 24.8282 22.6608 23.8898 23.2124 22.4648C23.6033 21.4623 24.1897 19.9469 24.1095 19.0843C24.0501 18.4606 24.4865 17.8778 25.1811 17.6475C27.6735 16.8199 29.904 16.4207 31.9984 16.4207C35.4752 16.4207 39.0008 17.3561 42.1983 19.128C42.6381 19.3728 42.9173 19.772 42.9592 20.2092C43.2106 23.0214 42.3344 24.9361 40.3552 25.8978C38.8646 26.6234 38.2014 28.2758 37.5626 29.8728C37.0704 31.0997 36.6062 32.2595 35.7335 33.1192C35.3181 33.5272 34.5501 34.0168 33.2376 34.0168H33.2341Z" fill="#2E5E5E"/>
<path d="M31.9986 45.8661C26.9266 45.8487 22.3049 43.7592 19.2471 40.7691C21.3101 38.6534 25.6385 39.5364 26.9057 37.3799C29.0769 33.6905 35.9954 40.8915 31.9986 45.8661Z" fill="#EF8C48"/>
<path d="M21.8267 40.9557C24.3958 42.949 27.6876 44.1905 31.0247 44.4061C31.9218 42.7334 31.4471 40.8537 30.6163 39.5539C29.8064 38.2892 28.8954 37.8345 28.6056 37.7967C28.5707 37.8287 28.5079 37.8957 28.4416 38.0094C27.4397 39.7142 25.3418 40.1484 23.6593 40.5011C23.0066 40.638 22.3747 40.7692 21.8267 40.9557ZM31.9986 47.2912H31.9916C26.6823 47.2708 21.5649 45.2309 17.9485 41.693C17.4145 41.1684 17.4005 40.402 17.9241 39.8658C19.2855 38.4698 21.2542 38.0589 22.832 37.7296C24.2213 37.4411 25.087 37.2371 25.3732 36.7475C26.0504 35.5964 27.2163 34.9349 28.5672 34.9349C30.4033 34.9349 32.3407 36.188 33.6322 38.2076C35.039 40.4136 35.7232 43.7883 33.4193 46.6589C33.1016 47.0552 32.5711 47.2912 32.0021 47.2912H31.9986Z" fill="#2E5E5E"/>
<path d="M48.4678 33.4778C48.0245 36.6485 46.5025 39.4928 43.9543 41.6522C41.0326 41.151 40.4532 38.9536 38.8614 37.4353C35.1298 33.8683 41.9367 33.064 45.7276 33.064C46.7678 33.064 47.5847 33.2126 48.4678 33.4778Z" fill="#EF8C48"/>
<path d="M39.4928 35.5906C39.4997 35.6488 39.5661 35.9344 40.1525 36.4969C40.711 37.0302 41.1369 37.5956 41.5453 38.1434C42.219 39.0439 42.7112 39.6559 43.4512 39.9998C44.9766 38.4844 46.0273 36.6222 46.5405 34.5327C46.2822 34.5036 46.0169 34.4919 45.7306 34.4919C42.0514 34.4919 39.772 35.1913 39.4928 35.5935V35.5906ZM43.9574 43.0802C43.8422 43.0802 43.727 43.0714 43.6118 43.051C40.8402 42.576 39.6254 40.9586 38.648 39.6559C38.292 39.1838 37.9569 38.7379 37.5764 38.3737C35.7507 36.628 35.9148 35.2642 36.3721 34.4249C37.6916 32.0002 42.8019 31.6389 45.7306 31.6389C46.893 31.6389 47.8879 31.7875 49.0468 32.1343C49.7938 32.3587 50.2581 32.9823 50.1673 33.6409C49.6716 37.1876 47.9437 40.3058 45.1756 42.6518C44.851 42.9257 44.4112 43.0772 43.9574 43.0772V43.0802Z" fill="#2E5E5E"/>
<path d="M31.9984 55.8794C24.305 55.8794 17.0722 53.379 11.6337 48.8357C6.19521 44.2953 3.2002 38.257 3.2002 31.834C3.2002 25.411 6.19521 19.3757 11.6372 14.8353C17.0757 10.292 24.3084 7.79156 31.9984 7.79156C39.6885 7.79156 46.9247 10.292 52.3632 14.8353C53.0299 15.3919 53.0299 16.2953 52.3632 16.8519C51.6965 17.4086 50.6143 17.4086 49.9476 16.8519C45.1549 12.8507 38.7809 10.6446 31.9984 10.6446C25.216 10.6446 18.8455 12.8478 14.0493 16.8519C9.25656 20.8532 6.6141 26.1746 6.6141 31.8369C6.6141 37.4993 9.25306 42.8178 14.0493 46.822C18.842 50.8232 25.216 53.0293 31.9984 53.0293C38.7809 53.0293 45.1514 50.8261 49.9476 46.822C54.7403 42.8207 57.3828 37.4993 57.3828 31.8369C57.3828 31.0501 58.1473 30.409 59.0932 30.409C60.0392 30.409 60.8037 31.0472 60.8037 31.8369C60.8037 38.2599 57.8087 44.2982 52.3667 48.8386C46.9282 53.379 39.6954 55.8823 32.0019 55.8823L31.9984 55.8794Z" fill="#2E5E5E"/>
<path d="M12.8449 12.2942C15.1906 12.2942 17.093 13.8824 17.093 15.8408C17.093 17.7992 15.1906 19.3874 12.8449 19.3874C10.4991 19.3874 8.59668 17.7992 8.59668 15.8408C8.59668 13.8824 10.4991 12.2942 12.8449 12.2942Z" fill="#EF8C48"/>
<path d="M12.8451 13.7222C12.1679 13.7222 11.5291 13.9437 11.0473 14.343C10.056 15.1706 10.056 16.517 11.0473 17.3417C11.5291 17.7439 12.1644 17.9625 12.8451 17.9625C13.5257 17.9625 14.1611 17.741 14.6428 17.3417C15.6341 16.5141 15.6341 15.1677 14.6428 14.343C14.1645 13.9437 13.5257 13.7222 12.8451 13.7222ZM12.8451 20.8184C11.2533 20.8184 9.75579 20.2997 8.63179 19.3613C6.30698 17.4204 6.30698 14.2672 8.63179 12.3263C9.75579 11.3879 11.2533 10.8692 12.8451 10.8692C14.4368 10.8692 15.9343 11.3879 17.0583 12.3263C19.3831 14.2672 19.3831 17.4204 17.0583 19.3613C15.9343 20.2997 14.4368 20.8184 12.8451 20.8184Z" fill="#2E5E5E"/>
<path d="M51.1554 44.2808C53.5012 44.2808 55.4036 45.869 55.4036 47.8274C55.4036 49.7858 53.5012 51.374 51.1554 51.374C48.8097 51.374 46.9072 49.7858 46.9072 47.8274C46.9072 45.869 48.8097 44.2808 51.1554 44.2808Z" fill="#EF8C48"/>
<path d="M51.1551 45.7059C50.4779 45.7059 49.8391 45.9274 49.3574 46.3266C48.366 47.1543 48.366 48.5006 49.3574 49.3254C49.8391 49.7275 50.4744 49.9461 51.1551 49.9461C51.8358 49.9461 52.4711 49.7246 52.9528 49.3254C53.9442 48.4977 53.9442 47.1513 52.9528 46.3266C52.4746 45.9274 51.8358 45.7059 51.1551 45.7059ZM51.1551 52.8021C49.5634 52.8021 48.0659 52.2833 46.9418 51.3449C44.617 49.4041 44.617 46.2508 46.9418 44.31C48.0659 43.3716 49.5634 42.8528 51.1551 42.8528C52.7469 42.8528 54.2444 43.3716 55.3684 44.31C57.6932 46.2508 57.6932 49.4041 55.3684 51.3449C54.2444 52.2833 52.7469 52.8021 51.1551 52.8021Z" fill="#2E5E5E"/>
<path d="M51.1554 12.2942C53.5012 12.2942 55.4036 13.8824 55.4036 15.8408C55.4036 17.7992 53.5012 19.3874 51.1554 19.3874C48.8097 19.3874 46.9072 17.7992 46.9072 15.8408C46.9072 13.8824 48.8097 12.2942 51.1554 12.2942Z" fill="#EF8C48"/>
<path d="M51.1551 13.7222C50.4779 13.7222 49.8391 13.9437 49.3574 14.343C48.366 15.1706 48.366 16.517 49.3574 17.3417C49.8391 17.7439 50.4744 17.9625 51.1551 17.9625C51.8358 17.9625 52.4711 17.741 52.9528 17.3417C53.9442 16.5141 53.9442 15.1677 52.9528 14.343C52.4746 13.9437 51.8358 13.7222 51.1551 13.7222ZM51.1551 20.8184C49.5634 20.8184 48.0659 20.2997 46.9418 19.3613C44.617 17.4204 44.617 14.2672 46.9418 12.3263C48.0659 11.3879 49.5634 10.8692 51.1551 10.8692C52.7469 10.8692 54.2444 11.3879 55.3684 12.3263C57.6932 14.2672 57.6932 17.4204 55.3684 19.3613C54.2444 20.2997 52.7469 20.8184 51.1551 20.8184Z" fill="#2E5E5E"/>
<path d="M12.8449 44.2808C15.1906 44.2808 17.093 45.869 17.093 47.8274C17.093 49.7858 15.1906 51.374 12.8449 51.374C10.4991 51.374 8.59668 49.7858 8.59668 47.8274C8.59668 45.869 10.4991 44.2808 12.8449 44.2808Z" fill="#EF8C48"/>
<path d="M12.8451 45.7059C12.1679 45.7059 11.5291 45.9274 11.0473 46.3266C10.056 47.1543 10.056 48.5006 11.0473 49.3254C11.5291 49.7275 12.1644 49.9461 12.8451 49.9461C13.5257 49.9461 14.1611 49.7246 14.6428 49.3254C15.6341 48.4977 15.6341 47.1513 14.6428 46.3266C14.1645 45.9274 13.5257 45.7059 12.8451 45.7059ZM12.8451 52.8021C11.2533 52.8021 9.75579 52.2833 8.63179 51.3449C6.30698 49.4041 6.30698 46.2508 8.63179 44.31C9.75579 43.3716 11.2533 42.8528 12.8451 42.8528C14.4368 42.8528 15.9343 43.3716 17.0583 44.31C19.3831 46.2508 19.3831 49.4041 17.0583 51.3449C15.9343 52.2833 14.4368 52.8021 12.8451 52.8021Z" fill="#2E5E5E"/>
</g>
<defs>
<clipPath id="clip0_8_24785">
<rect width="57.6" height="48.0878" fill="white" transform="translate(3.2002 7.79156)"/>
</clipPath>
</defs>
</svg>
