<svg width="64" height="64" viewBox="0 0 64 64" fill="none" xmlns="http://www.w3.org/2000/svg">
<g clip-path="url(#clip0_8_24783)">
<path d="M45.5785 27.642H18.4215C17.1768 27.642 16.1714 26.6237 16.1714 25.371V7.30472C16.1714 6.04851 17.1803 5.03375 18.4215 5.03375H45.5785C46.8232 5.03375 47.8286 6.05201 47.8286 7.30472V25.371C47.8286 26.6272 46.8197 27.642 45.5785 27.642Z" fill="#EF8C48"/>
<path d="M18.4213 6.86371C18.1786 6.86371 17.9844 7.06317 17.9844 7.30461V25.3709C17.9844 25.6123 18.1786 25.8118 18.4213 25.8118H45.5783C45.8176 25.8118 46.0152 25.6123 46.0152 25.3709V7.30461C46.0152 7.06317 45.8176 6.86371 45.5783 6.86371H18.4213ZM45.5783 29.4754H18.4213C16.1781 29.4754 14.3545 27.6348 14.3545 25.3709V7.30461C14.3545 5.04064 16.1781 3.20007 18.4213 3.20007H45.5783C47.8215 3.20007 49.6451 5.04064 49.6451 7.30461V25.3709C49.6451 27.6348 47.8215 29.4754 45.5783 29.4754Z" fill="#2E5E5E"/>
<path d="M53.9513 50.1206C52.9493 50.1206 52.138 49.3018 52.138 48.2905V40.1444C52.138 39.1857 51.3649 38.4053 50.4149 38.4053H13.5849C12.635 38.4053 11.8618 39.1857 11.8618 40.1444V48.2905C11.8618 49.3018 11.0506 50.1206 10.0486 50.1206C9.04663 50.1206 8.23535 49.3018 8.23535 48.2905V40.1444C8.23535 37.1666 10.638 34.7417 13.5884 34.7417H50.4184C53.3688 34.7417 55.7715 37.1631 55.7715 40.1444V48.2905C55.7715 49.3018 54.9602 50.1206 53.9582 50.1206H53.9513Z" fill="#2E5E5E"/>
<path d="M31.9983 44.263C30.9963 44.263 30.1851 43.4442 30.1851 42.433V27.6454C30.1851 26.6342 30.9963 25.8154 31.9983 25.8154C33.0003 25.8154 33.8115 26.6342 33.8115 27.6454V42.433C33.8115 43.4442 33.0003 44.263 31.9983 44.263Z" fill="#2E5E5E"/>
<path d="M10.0487 51.0376C8.38106 51.0376 7.02546 52.4058 7.02546 54.0889C7.02546 55.772 8.38106 57.1402 10.0487 57.1402C11.7163 57.1402 13.0719 55.772 13.0719 54.0889C13.0719 52.4058 11.7163 51.0376 10.0487 51.0376ZM10.0487 60.8003C6.3806 60.8003 3.39551 57.7875 3.39551 54.0854C3.39551 50.3833 6.3806 47.374 10.0487 47.374C13.7168 47.374 16.7019 50.3868 16.7019 54.0854C16.7019 57.784 13.7168 60.8003 10.0487 60.8003Z" fill="#2E5E5E"/>
<path d="M36.8382 60.8002H27.1653C26.1633 60.8002 25.3521 59.9814 25.3521 58.9702V49.2074C25.3521 48.1962 26.1633 47.3774 27.1653 47.3774H36.8382C37.8402 47.3774 38.6515 48.1962 38.6515 49.2074C38.6515 50.2187 37.8402 51.0375 36.8382 51.0375H28.9785V57.1401H35.025V54.6382C35.025 53.6269 35.8363 52.8081 36.8382 52.8081C37.8402 52.8081 38.6515 53.6269 38.6515 54.6382V58.9702C38.6515 59.9814 37.8402 60.8002 36.8382 60.8002Z" fill="#2E5E5E"/>
<path d="M53.951 51.0376C52.2834 51.0376 50.9278 52.4058 50.9278 54.0889C50.9278 55.772 52.2834 57.1402 53.951 57.1402C55.6187 57.1402 56.9743 55.772 56.9743 54.0889C56.9743 52.4058 55.6187 51.0376 53.951 51.0376ZM53.951 60.8003C50.2829 60.8003 47.2979 57.7875 47.2979 54.0854C47.2979 50.3833 50.2829 47.374 53.951 47.374C57.6191 47.374 60.6042 50.3868 60.6042 54.0854C60.6042 57.784 57.6191 60.8003 53.951 60.8003Z" fill="#2E5E5E"/>
<path d="M27.1617 56.4681H14.8816C13.8796 56.4681 13.0684 55.6493 13.0684 54.638C13.0684 53.6267 13.8796 52.8079 14.8816 52.8079H27.1617C28.1637 52.8079 28.975 53.6267 28.975 54.638C28.975 55.6493 28.1637 56.4681 27.1617 56.4681Z" fill="#2E5E5E"/>
<path d="M42.947 56.4681H36.8381C35.8362 56.4681 35.0249 55.6493 35.0249 54.638C35.0249 53.6267 35.8362 52.8079 36.8381 52.8079H42.947C43.949 52.8079 44.7602 53.6267 44.7602 54.638C44.7602 55.6493 43.949 56.4681 42.947 56.4681Z" fill="#2E5E5E"/>
</g>
<defs>
<clipPath id="clip0_8_24783">
<rect width="57.209" height="57.6" fill="white" transform="translate(3.39551 3.20001)"/>
</clipPath>
</defs>
</svg>
