<svg preserveAspectRatio="none" width="100%" height="100%" overflow="visible" style="display: block;" viewBox="0 0 52 44" fill="none" xmlns="http://www.w3.org/2000/svg">
<path id="Vector" d="M48 0H4C2.93913 0 1.92172 0.421427 1.17157 1.17157C0.421427 1.92172 0 2.93913 0 4V40C0 41.0609 0.421427 42.0783 1.17157 42.8284C1.92172 43.5786 2.93913 44 4 44H48C49.0609 44 50.0783 43.5786 50.8284 42.8284C51.5786 42.0783 52 41.0609 52 40V4C52 2.93913 51.5786 1.92172 50.8284 1.17157C50.0783 0.421427 49.0609 0 48 0ZM17.2 26.4C17.6243 26.7183 17.9049 27.1921 17.9799 27.7172C18.0549 28.2423 17.9183 28.7757 17.6 29.2C17.2817 29.6243 16.8079 29.9049 16.2828 29.9799C15.7577 30.0549 15.2243 29.9183 14.8 29.6L6.8 23.6C6.55161 23.4137 6.35 23.1721 6.21115 22.8944C6.07229 22.6167 6 22.3105 6 22C6 21.6895 6.07229 21.3833 6.21115 21.1056C6.35 20.8279 6.55161 20.5863 6.8 20.4L14.8 14.4C15.2243 14.0817 15.7577 13.9451 16.2828 14.0201C16.8079 14.0951 17.2817 14.3757 17.6 14.8C17.9183 15.2243 18.0549 15.7577 17.9799 16.2828C17.9049 16.8079 17.6243 17.2817 17.2 17.6L11.3325 22L17.2 26.4ZM31.9225 8.55L23.9225 36.55C23.8543 36.807 23.7356 37.0478 23.5732 37.2584C23.4108 37.469 23.2081 37.6451 22.9769 37.7763C22.7457 37.9076 22.4906 37.9915 22.2266 38.023C21.9626 38.0546 21.6949 38.0332 21.4393 37.96C21.1836 37.8869 20.9451 37.7635 20.7377 37.5971C20.5304 37.4307 20.3582 37.2246 20.2314 36.9909C20.1046 36.7572 20.0257 36.5005 19.9993 36.236C19.9728 35.9714 19.9994 35.7042 20.0775 35.45L28.0775 7.45C28.2313 6.94934 28.5753 6.52897 29.0356 6.27921C29.496 6.02946 30.0359 5.97024 30.5395 6.1143C31.043 6.25836 31.47 6.59418 31.7286 7.04962C31.9872 7.50506 32.0568 8.04377 31.9225 8.55ZM45.2 23.6L37.2 29.6C36.7757 29.9183 36.2423 30.0549 35.7172 29.9799C35.1921 29.9049 34.7183 29.6243 34.4 29.2C34.0817 28.7757 33.9451 28.2423 34.0201 27.7172C34.0951 27.1921 34.3757 26.7183 34.8 26.4L40.6675 22L34.8 17.6C34.5899 17.4424 34.4129 17.245 34.2791 17.019C34.1452 16.793 34.0572 16.5428 34.0201 16.2828C33.983 16.0228 33.9974 15.7581 34.0626 15.5036C34.1278 15.2492 34.2424 15.0101 34.4 14.8C34.5576 14.5899 34.755 14.4129 34.981 14.2791C35.207 14.1452 35.4572 14.0572 35.7172 14.0201C35.9772 13.983 36.2419 13.9974 36.4964 14.0626C36.7508 14.1278 36.9899 14.2424 37.2 14.4L45.2 20.4C45.4484 20.5863 45.65 20.8279 45.7889 21.1056C45.9277 21.3833 46 21.6895 46 22C46 22.3105 45.9277 22.6167 45.7889 22.8944C45.65 23.1721 45.4484 23.4137 45.2 23.6Z" fill="var(--fill-0, #C7C8C6)"/>
</svg>
