<svg width="64" height="64" viewBox="0 0 64 64" fill="none" xmlns="http://www.w3.org/2000/svg">
<g clip-path="url(#clip0_8_24777)">
<path d="M30.1478 48.5406C30.1478 48.5406 30.1129 48.5406 30.0955 48.5406C28.1267 48.4778 26.4023 47.1793 25.8019 45.3048C25.8019 45.2978 25.8019 45.2943 25.7984 45.2873L22.3496 34.0822C21.5747 31.6352 22.929 29.0137 25.3725 28.2318C26.5594 27.8513 27.823 27.9595 28.9261 28.5285C29.153 28.6472 29.3659 28.7798 29.5684 28.9264V15.9061C29.5684 13.337 31.6593 11.246 34.2284 11.246C36.7976 11.246 38.8885 13.337 38.8885 15.9061V20.0112C38.8885 20.8943 38.1729 21.6099 37.2898 21.6099C36.4066 21.6099 35.691 20.8943 35.691 20.0112V15.9061C35.691 15.0963 35.0348 14.44 34.2249 14.44C33.4151 14.44 32.7589 15.0963 32.7589 15.9061V36.2743C32.7589 37.0597 32.1864 37.73 31.408 37.8521C30.6295 37.9743 29.879 37.51 29.6382 36.763L28.1791 32.2251C27.9312 31.4537 27.1074 31.0278 26.336 31.2722C25.568 31.5165 25.1387 32.3438 25.3865 33.1153C25.3865 33.1222 25.3865 33.1257 25.39 33.1292L28.8388 44.3309C29.0273 44.9138 29.5684 45.3222 30.1862 45.3397C31.0694 45.3676 31.7605 46.1041 31.7326 46.9873C31.7047 47.853 30.9961 48.5337 30.1373 48.5337L30.1478 48.5406Z" fill="#080D00"/>
<mask id="mask0_8_24777" style="mask-type:luminance" maskUnits="userSpaceOnUse" x="10" y="3" width="44" height="58">
<path d="M53.1863 3.20001H10.2402V60.8H53.1863V3.20001Z" fill="white"/>
</mask>
<g mask="url(#mask0_8_24777)">
<path d="M30.7763 28.5529C30.9054 28.6192 31.0346 28.6576 31.1672 28.6786V15.9096C31.1672 14.2166 32.5391 12.8448 34.2321 12.8448C35.3351 12.8448 36.2951 13.4277 36.8361 14.3004C36.8815 13.7174 36.4871 13.1275 35.8238 13.0298L28.626 11.9826L25.4076 5.45844C24.9713 4.57529 23.7146 4.57529 23.2783 5.45844L20.0598 11.9826L12.862 13.0298C11.8881 13.1729 11.5007 14.3667 12.2058 15.0544L17.4139 20.1333L16.1852 27.3032C16.0176 28.2736 17.0369 29.0137 17.9061 28.5564L24.3464 25.1704L30.7833 28.5564L30.7763 28.5529Z" fill="#EF8C48"/>
<path d="M13.9089 14.4889L18.5236 18.9849C18.9006 19.3515 19.0717 19.8821 18.9844 20.3987L17.8953 26.7483L23.5991 23.7497C24.0633 23.5054 24.6219 23.5054 25.0861 23.7497L29.5752 26.1095V15.9027C29.5752 15.1487 29.7567 14.4331 30.0743 13.8013L28.3953 13.5569C27.8752 13.4801 27.4249 13.1555 27.191 12.6842L24.3391 6.90713L21.4872 12.6842C21.2533 13.1555 20.8065 13.4836 20.2829 13.5569L13.9054 14.4819L13.9089 14.4889ZM17.3472 30.2878C16.5269 30.2878 15.7485 29.9248 15.2144 29.293C14.6873 28.6681 14.4639 27.8443 14.6036 27.031L15.6927 20.6884L11.0849 16.1959C10.317 15.4524 10.0482 14.3598 10.3798 13.344C10.7079 12.3282 11.5701 11.6021 12.6278 11.4485L18.9949 10.5235L21.8433 4.75337C22.3145 3.79692 23.271 3.20001 24.3391 3.20001C25.4073 3.20001 26.3637 3.79343 26.835 4.75337L29.6834 10.5235L36.0504 11.4485C37.4956 11.658 38.5393 12.9635 38.4276 14.4226C38.3752 15.1138 37.8865 15.6897 37.2128 15.8538C36.5391 16.0179 35.841 15.7316 35.4744 15.1417C35.2022 14.7054 34.7379 14.4435 34.2283 14.4435C33.4184 14.4435 32.7622 15.0998 32.7622 15.9096V28.6786C32.7622 29.1429 32.5632 29.5827 32.2106 29.8864C31.8616 30.1901 31.3973 30.3262 30.94 30.2599C30.6189 30.2145 30.3117 30.1168 30.0324 29.9667L24.3356 26.9717L18.6388 29.9667C18.2374 30.1761 17.7906 30.2878 17.3438 30.2878H17.3472Z" fill="#2E5E5E"/>
</g>
<path d="M48.8649 48.0137C48.076 48.0137 47.3918 47.4307 47.2836 46.6279C47.1684 45.7552 47.7828 44.9489 48.6554 44.8337C49.4164 44.7324 49.9924 44.0762 49.9924 43.3047V34.7595C49.9924 33.9078 49.3012 33.2166 48.4495 33.2166C48.1737 33.2166 47.9154 33.2864 47.678 33.4226C47.1824 33.7088 46.575 33.7088 46.0793 33.4226C45.5836 33.1363 45.2799 32.6092 45.2799 32.0403V31.953C45.2799 31.1013 44.5888 30.4101 43.737 30.4101C43.4613 30.4101 43.203 30.4799 42.9691 30.6161C42.4734 30.9023 41.866 30.9023 41.3704 30.6161C40.8747 30.3298 40.571 29.8027 40.571 29.2302V28.8777C40.571 28.026 39.8798 27.3348 39.0281 27.3348C38.7244 27.3348 38.4312 27.4221 38.1799 27.5896C37.4433 28.0748 36.452 27.8724 35.9668 27.1393C35.4815 26.4028 35.684 25.4114 36.4171 24.9262C37.192 24.4131 38.0961 24.1408 39.0246 24.1408C41.0562 24.1408 42.7911 25.4254 43.4648 27.2231C43.5555 27.2161 43.6463 27.2161 43.737 27.2161C45.6674 27.2161 47.3325 28.3785 48.0725 30.0366C48.1982 30.0261 48.3238 30.0226 48.453 30.0226C51.0675 30.0226 53.1933 32.1485 53.1933 34.763V43.3082C53.1933 45.6749 51.4271 47.6925 49.0848 48.0032C49.015 48.0137 48.9417 48.0172 48.8719 48.0172L48.8649 48.0137Z" fill="#2E5E5E"/>
<path d="M47.0182 59.2014H31.3624C29.8579 59.2014 28.6396 57.9832 28.6396 56.4787V52.3632H49.7409V56.4787C49.7409 57.9832 48.5227 59.2014 47.0182 59.2014Z" fill="#EF8C48"/>
<path d="M30.235 53.9617V56.4785C30.235 57.0998 30.7412 57.6025 31.359 57.6025H47.0148C47.6361 57.6025 48.1388 57.0964 48.1388 56.4785V53.9617H30.2315H30.235ZM47.0183 60.8H31.3625C28.9818 60.8 27.041 58.8626 27.041 56.4785V52.363C27.041 51.4798 27.7566 50.7642 28.6398 50.7642H49.741C50.6242 50.7642 51.3398 51.4798 51.3398 52.363V56.4785C51.3398 58.8592 49.4024 60.8 47.0183 60.8Z" fill="#080D00"/>
</g>
<defs>
<clipPath id="clip0_8_24777">
<rect width="42.9461" height="57.6" fill="white" transform="translate(10.2402 3.20001)"/>
</clipPath>
</defs>
</svg>
