<svg width="64" height="64" viewBox="0 0 64 64" fill="none" xmlns="http://www.w3.org/2000/svg">
<g clip-path="url(#clip0_8_24773)">
<mask id="mask0_8_24773" style="mask-type:luminance" maskUnits="userSpaceOnUse" x="8" y="3" width="48" height="58">
<path d="M55.364 3.20001H8.31982V60.8H55.364V3.20001Z" fill="white"/>
</mask>
<g mask="url(#mask0_8_24773)">
<path d="M9.98096 14.182H19.5908V4.86188L9.98096 14.182Z" fill="#EF8C48"/>
<path d="M14.0865 12.5206H17.9297V8.79257L14.0865 12.5206ZM19.5913 15.8473H9.98139C9.3042 15.8473 8.69333 15.4354 8.442 14.8105C8.18718 14.1822 8.34077 13.4631 8.82597 12.9919L18.4359 3.66823C18.9141 3.20396 19.6262 3.07132 20.2406 3.32963C20.8549 3.59143 21.2563 4.19183 21.2563 4.86205V14.1822C21.2563 15.1003 20.5128 15.8438 19.5948 15.8438L19.5913 15.8473Z" fill="#2E5E5E"/>
<path d="M53.7023 39.1963C52.7843 39.1963 52.0408 38.4528 52.0408 37.5347V7.26686C52.0408 6.85845 51.6742 6.52683 51.2274 6.52683H27.3022C26.3841 6.52683 25.6406 5.78331 25.6406 4.86526C25.6406 3.9472 26.3841 3.2002 27.3022 3.2002H51.2239C53.5069 3.2002 55.3639 5.02234 55.3639 7.26337V37.5312C55.3639 38.4493 54.6204 39.1928 53.7023 39.1928V39.1963Z" fill="#2E5E5E"/>
<path d="M51.224 60.8001H12.4598C10.1769 60.8001 8.31982 58.978 8.31982 56.7369V14.1818C8.31982 13.7315 8.50134 13.3022 8.82598 12.988L18.4359 3.66785C19.0956 3.02905 20.1463 3.04302 20.7886 3.70276C21.4274 4.3625 21.4134 5.4132 20.7537 6.052L11.6499 14.8835V56.7334C11.6499 57.1418 12.0165 57.4735 12.4633 57.4735H51.2275C51.6778 57.4735 52.0408 57.1418 52.0408 56.7334V46.3102C52.0408 45.3922 52.7843 44.6486 53.7024 44.6486C54.6204 44.6486 55.364 45.3922 55.364 46.3102V56.7334C55.364 58.9745 53.5069 60.7966 51.224 60.7966V60.8001Z" fill="#2E5E5E"/>
</g>
<path d="M53.7023 15.8469H27.3022C26.3841 15.8469 25.6406 15.1034 25.6406 14.1853C25.6406 13.2672 26.3841 12.5237 27.3022 12.5237H52.0373V7.68562C52.0373 7.04682 51.5172 6.52671 50.8784 6.52671H27.3022C26.3841 6.52671 25.6406 5.78319 25.6406 4.86514C25.6406 3.94708 26.3841 3.20007 27.3022 3.20007H50.8784C53.3498 3.20007 55.3604 5.21072 55.3604 7.68213V14.1818C55.3604 15.0999 54.6169 15.8434 53.6989 15.8434L53.7023 15.8469Z" fill="#080D00"/>
<path d="M16.5298 24.5283H30.4961V31.8413H16.5298V24.5283Z" fill="#EF8C48"/>
<path d="M18.1948 30.1799H28.8344V26.19H18.1948V30.1799ZM30.496 33.503H16.5297C15.6117 33.503 14.8682 32.7595 14.8682 31.8415V24.525C14.8682 23.6069 15.6117 22.8634 16.5297 22.8634H30.496C31.4141 22.8634 32.1576 23.6069 32.1576 24.525V31.8415C32.1576 32.7595 31.4141 33.503 30.496 33.503Z" fill="#080D00"/>
<path d="M40.8042 33.021C40.3644 33.021 39.942 32.8465 39.6278 32.5358L36.9679 29.8759C36.3186 29.2266 36.3186 28.1724 36.9679 27.5232C37.6172 26.8739 38.6714 26.8739 39.3206 27.5232L40.8042 29.0067L45.9774 23.8335C46.6267 23.1842 47.6809 23.1842 48.3301 23.8335C48.9794 24.4828 48.9794 25.537 48.3301 26.1862L41.9806 32.5358C41.6699 32.8465 41.244 33.021 40.8042 33.021Z" fill="#080D00"/>
<path d="M16.5298 42.1423H30.4961V49.4588H16.5298V42.1423Z" fill="#EF8C48"/>
<path d="M18.1948 47.7937H28.8344V43.8038H18.1948V47.7937ZM30.496 51.1203H16.5297C15.6117 51.1203 14.8682 50.3768 14.8682 49.4587V42.1422C14.8682 41.2242 15.6117 40.4807 16.5297 40.4807H30.496C31.4141 40.4807 32.1576 41.2242 32.1576 42.1422V49.4587C32.1576 50.3768 31.4141 51.1203 30.496 51.1203Z" fill="#080D00"/>
<path d="M40.8042 50.6352C40.3644 50.6352 39.942 50.4606 39.6278 50.1465L36.9679 47.4866C36.3186 46.8373 36.3186 45.7831 36.9679 45.1338C37.6172 44.4846 38.6714 44.4846 39.3206 45.1338L40.8042 46.6174L45.9774 41.4442C46.6267 40.7949 47.6809 40.7949 48.3301 41.4442C48.9794 42.0934 48.9794 43.1476 48.3301 43.7969L41.9806 50.1465C41.6699 50.4572 41.244 50.6352 40.8042 50.6352Z" fill="#2E5E5E"/>
</g>
<defs>
<clipPath id="clip0_8_24773">
<rect width="47.0441" height="57.6" fill="white" transform="translate(8.31982 3.20001)"/>
</clipPath>
</defs>
</svg>
