<svg preserveAspectRatio="none" width="100%" height="100%" overflow="visible" style="display: block;" viewBox="0 0 53.9616 51.9601" fill="none" xmlns="http://www.w3.org/2000/svg">
<path id="Vector" d="M51.6 21.67C52.5137 27.1014 51.6777 32.6827 49.2126 37.6079C46.7475 42.5332 42.7809 46.5476 37.8855 49.0716C32.9902 51.5955 27.4193 52.4984 21.9774 51.6498C16.5354 50.8013 11.5039 48.2452 7.60939 44.3507C3.71485 40.4561 1.15877 35.4246 0.310217 29.9827C-0.538338 24.5407 0.364539 18.9699 2.88849 14.0745C5.41243 9.17915 9.42685 5.21256 14.3521 2.74746C19.2774 0.282365 24.8586 -0.553684 30.29 0.360029C30.8092 0.451841 31.2711 0.744934 31.5753 1.17556C31.8795 1.60618 32.0013 2.13949 31.9143 2.65948C31.8273 3.17948 31.5385 3.64409 31.1108 3.95225C30.683 4.26041 30.1508 4.3872 29.63 4.30503C26.4754 3.77434 23.2429 3.93747 20.1577 4.78304C17.0725 5.62862 14.2086 7.13634 11.7653 9.20128C9.32205 11.2662 7.35809 13.8388 6.01012 16.7399C4.66215 19.641 3.96256 22.801 3.96003 26C3.95529 31.3855 5.93465 36.584 9.52003 40.6025C10.9741 38.4935 12.8211 36.6847 14.96 35.275C15.1426 35.154 15.3599 35.0962 15.5785 35.1107C15.7971 35.1251 16.005 35.211 16.17 35.355C18.8869 37.706 22.3596 38.9999 25.9525 38.9999C29.5454 38.9999 33.0181 37.706 35.735 35.355C35.9001 35.211 36.1079 35.1251 36.3265 35.1107C36.5451 35.0962 36.7624 35.154 36.945 35.275C39.086 36.6847 40.9355 38.4934 42.3925 40.6025C45.9806 36.5851 47.9627 31.3865 47.96 26C47.9601 24.7704 47.8581 23.5428 47.655 22.33C47.609 22.0699 47.615 21.8032 47.6727 21.5453C47.7303 21.2875 47.8385 21.0436 47.9909 20.8278C48.1434 20.612 48.337 20.4286 48.5608 20.2881C48.7845 20.1475 49.0339 20.0528 49.2945 20.0092C49.555 19.9656 49.8217 19.974 50.079 20.0341C50.3363 20.0941 50.5791 20.2045 50.7935 20.359C51.0078 20.5134 51.1895 20.7088 51.3279 20.9338C51.4664 21.1588 51.5588 21.4091 51.6 21.67ZM14.96 24C14.96 26.1756 15.6052 28.3024 16.8139 30.1113C18.0226 31.9202 19.7405 33.3301 21.7505 34.1627C23.7605 34.9953 25.9722 35.2131 28.106 34.7887C30.2398 34.3642 32.1998 33.3166 33.7382 31.7782C35.2766 30.2398 36.3242 28.2798 36.7487 26.146C37.1731 24.0122 36.9553 21.8005 36.1227 19.7905C35.2901 17.7805 33.8802 16.0626 32.0713 14.8539C30.2624 13.6452 28.1356 13 25.96 13C23.0426 13 20.2448 14.159 18.1819 16.2219C16.119 18.2848 14.96 21.0826 14.96 24ZM53.375 2.58503C53.1893 2.39908 52.9687 2.25156 52.7259 2.15091C52.4831 2.05026 52.2229 1.99846 51.96 1.99846C51.6972 1.99846 51.4369 2.05026 51.1941 2.15091C50.9513 2.25156 50.7308 2.39908 50.545 2.58503L43.96 9.17253L41.375 6.58503C41.1892 6.39921 40.9686 6.25181 40.7258 6.15124C40.483 6.05068 40.2228 5.99892 39.96 5.99892C39.6972 5.99892 39.437 6.05068 39.1942 6.15124C38.9514 6.25181 38.7308 6.39921 38.545 6.58503C38.3592 6.77085 38.2118 6.99145 38.1112 7.23424C38.0107 7.47702 37.9589 7.73724 37.9589 8.00003C37.9589 8.26282 38.0107 8.52304 38.1112 8.76582C38.2118 9.00861 38.3592 9.22921 38.545 9.41503L42.545 13.415C42.7308 13.601 42.9513 13.7485 43.1941 13.8491C43.4369 13.9498 43.6972 14.0016 43.96 14.0016C44.2229 14.0016 44.4831 13.9498 44.7259 13.8491C44.9687 13.7485 45.1893 13.601 45.375 13.415L53.375 5.41503C53.561 5.22928 53.7085 5.00871 53.8091 4.76591C53.9098 4.52311 53.9616 4.26286 53.9616 4.00003C53.9616 3.7372 53.9098 3.47694 53.8091 3.23415C53.7085 2.99135 53.561 2.77077 53.375 2.58503Z" fill="var(--fill-0, #C7C8C6)"/>
</svg>
