<svg width="64" height="64" viewBox="0 0 64 64" fill="none" xmlns="http://www.w3.org/2000/svg">
<g clip-path="url(#clip0_8_24771)">
<path d="M54.9777 49.1773H49.815C48.9144 49.1773 48.1883 48.4477 48.1883 47.5506C48.1883 46.6535 48.9179 45.9239 49.815 45.9239H54.9777C56.3914 45.9239 57.5434 44.772 57.5434 43.3583V13.614C57.5434 12.2003 56.3914 11.0484 54.9777 11.0484H9.02268C7.60895 11.0484 6.45702 12.2003 6.45702 13.614V43.3548C6.45702 44.7685 7.60895 45.9205 9.02268 45.9205H39.7792C40.6763 45.9205 41.4059 46.65 41.4059 47.5471C41.4059 48.4442 40.6763 49.1738 39.7792 49.1738H9.02268C5.81124 49.1738 3.2002 46.5627 3.2002 43.3513V13.614C3.2002 10.4026 5.81124 7.79156 9.02268 7.79156H54.9812C58.1926 7.79156 60.8037 10.4026 60.8037 13.614V43.3548C60.8037 46.5662 58.1926 49.1773 54.9812 49.1773H54.9777Z" fill="#080D00"/>
<path d="M24.2212 47.5508H39.7792V54.253H24.2212V47.5508Z" fill="#EF8C48"/>
<path d="M25.8481 52.6262H38.1528V49.1774H25.8481V52.6262ZM39.7794 55.8795H24.2214C23.3208 55.8795 22.5947 55.15 22.5947 54.2529V47.5507C22.5947 46.6501 23.3243 45.9241 24.2214 45.9241H39.7794C40.6765 45.9241 41.4061 46.6536 41.4061 47.5507V54.2529C41.4061 55.1535 40.6765 55.8795 39.7794 55.8795Z" fill="#080D00"/>
<path d="M44.6488 55.8796H19.3518C18.4547 55.8796 17.7251 55.1501 17.7251 54.2529C17.7251 53.3558 18.4547 52.6263 19.3518 52.6263H44.6488C45.546 52.6263 46.2755 53.3558 46.2755 54.2529C46.2755 55.1501 45.546 55.8796 44.6488 55.8796Z" fill="#080D00"/>
<path d="M27.7504 40.5623H19.2471V30.3695C19.2471 28.0202 21.1495 26.1178 23.4987 26.1178C25.848 26.1178 27.7504 28.0202 27.7504 30.3695V40.5623Z" fill="#EF8C48"/>
<path d="M20.8734 38.9356H26.12V30.3694C26.12 28.9243 24.9436 27.7444 23.495 27.7444C22.0463 27.7444 20.87 28.9208 20.87 30.3694V38.9356H20.8734ZM27.7501 42.1889H19.2468C18.3462 42.1889 17.6201 41.4594 17.6201 40.5623V30.3694C17.6201 27.1266 20.2556 24.4911 23.4985 24.4911C26.7413 24.4911 29.3768 27.1266 29.3768 30.3694V40.5623C29.3768 41.4629 28.6472 42.1889 27.7501 42.1889Z" fill="#080D00"/>
<path d="M36.2504 40.5623H27.7471V25.2696C27.7471 22.9203 29.6495 21.0179 31.9987 21.0179C34.348 21.0179 36.2504 22.9203 36.2504 25.2696V40.5623Z" fill="#EF8C48"/>
<path d="M29.3769 38.9356H34.6235V25.2695C34.6235 23.8244 33.4471 22.6445 31.9985 22.6445C30.5498 22.6445 29.3734 23.8209 29.3734 25.2695V38.9356H29.3769ZM36.2501 42.1889H27.7468C26.8462 42.1889 26.1201 41.4594 26.1201 40.5623V25.2695C26.1201 22.0267 28.7556 19.3912 31.9985 19.3912C35.2413 19.3912 37.8768 22.0267 37.8768 25.2695V40.5623C37.8768 41.4629 37.1472 42.1889 36.2501 42.1889Z" fill="#080D00"/>
<path d="M44.7535 42.1891H36.2502C35.3496 42.1891 34.6235 41.4596 34.6235 40.5624V20.1663C34.6235 16.9234 37.259 14.288 40.5019 14.288C43.7447 14.288 46.3802 16.9234 46.3802 20.1663V30.3975C46.3802 31.2981 45.6507 32.0242 44.7535 32.0242C43.8564 32.0242 43.1269 31.2946 43.1269 30.3975V20.1663C43.1269 18.7211 41.9505 17.5413 40.5019 17.5413C39.0532 17.5413 37.8769 18.7177 37.8769 20.1663V38.9358H44.75C45.6506 38.9358 46.3767 39.6653 46.3767 40.5624C46.3767 41.4596 45.6472 42.1891 44.75 42.1891H44.7535Z" fill="#080D00"/>
</g>
<defs>
<clipPath id="clip0_8_24771">
<rect width="57.6" height="48.0878" fill="white" transform="translate(3.2002 7.79156)"/>
</clipPath>
</defs>
</svg>
