<svg width="64" height="64" viewBox="0 0 64 64" fill="none" xmlns="http://www.w3.org/2000/svg">
<g clip-path="url(#clip0_8_24775)">
<path d="M34.5174 29.0172H27.3859C26.4888 29.0172 25.7627 28.2912 25.7627 27.3941V20.1893C25.7627 19.2922 26.4888 18.5661 27.3859 18.5661C28.283 18.5661 29.009 19.2922 29.009 20.1893V25.7709H34.5139C35.411 25.7709 36.137 26.497 36.137 27.3941C36.137 28.2912 35.411 29.0172 34.5139 29.0172H34.5174Z" fill="#080D00"/>
<path d="M30.9607 9.38203H23.6686C22.4154 9.38203 21.3892 8.35577 21.3892 7.10261C21.3892 5.84945 22.4154 4.82318 23.6686 4.82318H30.9607C32.2138 4.82318 33.2401 5.84945 33.2401 7.10261C33.2401 8.35577 32.2138 9.38203 30.9607 9.38203Z" fill="#EF8C48"/>
<path d="M23.6682 6.44991C23.3122 6.44991 23.0155 6.75011 23.0155 7.10267C23.0155 7.45523 23.3157 7.75543 23.6682 7.75543H30.9603C31.3163 7.75543 31.6131 7.45523 31.6131 7.10267C31.6131 6.75011 31.3129 6.44991 30.9603 6.44991H23.6682ZM30.9603 11.0053H23.6682C21.518 11.0053 19.7656 9.25294 19.7656 7.10267C19.7656 4.9524 21.5145 3.20007 23.6682 3.20007H30.9603C33.1106 3.20007 34.8629 4.9524 34.8629 7.10267C34.8629 9.25643 33.1106 11.0053 30.9603 11.0053Z" fill="#080D00"/>
<path d="M44.0434 31.2899C51.7439 31.2899 57.9853 37.5313 57.9853 45.2318C57.9853 52.9322 51.7439 59.1736 44.0434 59.1736C36.3429 59.1736 30.1016 52.9322 30.1016 45.2318C30.1016 37.5313 36.3429 31.2899 44.0434 31.2899Z" fill="#EF8C48"/>
<path d="M44.0436 32.9129C37.2507 32.9129 31.7249 38.4387 31.7249 45.2316C31.7249 52.0245 37.2507 57.5503 44.0436 57.5503C50.8365 57.5503 56.3623 52.0245 56.3623 45.2316C56.3623 38.4387 50.8365 32.9129 44.0436 32.9129ZM44.0436 60.8001C35.46 60.8001 28.4751 53.8152 28.4751 45.2316C28.4751 36.648 35.46 29.6631 44.0436 29.6631C52.6272 29.6631 59.6121 36.648 59.6121 45.2316C59.6121 53.8152 52.6272 60.8001 44.0436 60.8001Z" fill="#2E5E5E"/>
<path d="M23.2351 45.9053C23.1094 45.9053 22.9803 45.8913 22.8546 45.8599C18.781 44.879 15.0878 42.5263 12.4593 39.2346C9.78892 35.887 8.31934 31.6842 8.31934 27.3941C8.31934 16.922 16.8401 8.40125 27.3122 8.40125C31.8327 8.40125 36.2135 10.0174 39.6483 12.9531C43.0413 15.8539 45.3138 19.8647 46.0468 24.249C46.1934 25.1356 45.5965 25.9699 44.7134 26.12C43.8302 26.2666 42.9924 25.6697 42.8423 24.7866C41.5717 17.1769 35.0406 11.6546 27.3157 11.6546C18.6343 11.6546 11.5692 18.7163 11.5692 27.3976C11.5692 34.7036 16.5225 40.9974 23.6156 42.7043C24.4882 42.9138 25.0258 43.7899 24.8164 44.6626C24.6383 45.4061 23.9716 45.9088 23.2386 45.9088L23.2351 45.9053Z" fill="#080D00"/>
<path d="M44.7732 45.9576V48.5616C45.4329 48.4045 45.96 48.038 45.96 47.3364C45.96 46.6941 45.4748 46.2857 44.7732 45.9576ZM43.6841 42.3622V40.0513C42.8079 40.2258 42.4414 40.6727 42.4414 41.1404C42.4414 41.7024 42.9476 42.055 43.6841 42.3656V42.3622ZM43.4886 51.3402C41.1568 51.2634 39.2544 50.0591 39.2544 48.813C39.2544 48.1532 39.8373 47.1793 40.5774 47.1793C41.3942 47.1793 42.0539 48.3243 43.4921 48.5791V45.4305C41.7049 44.7498 39.607 43.9155 39.607 41.4266C39.607 38.9378 41.4326 37.7719 43.4921 37.4822V36.9376C43.4921 36.6653 43.8028 36.414 44.2321 36.414C44.6021 36.414 44.9722 36.6653 44.9722 36.9376V37.4228C46.1764 37.4612 48.4489 37.7719 48.4489 39.1123C48.4489 39.6359 48.0998 40.7041 47.2446 40.7041C46.6023 40.7041 46.2358 40.0827 44.9722 39.985V42.8229C46.7419 43.4827 48.8015 44.3972 48.8015 47.0187C48.8015 49.4273 47.2481 50.8864 44.9722 51.2564V51.8184C44.9722 52.0907 44.6021 52.3421 44.2321 52.3421C43.8063 52.3421 43.4921 52.0907 43.4921 51.8184V51.3332L43.4886 51.3402Z" fill="#2E5E5E"/>
<path d="M38.8212 16.0076C38.4058 16.0076 37.9904 15.8505 37.6728 15.5329C37.0375 14.8976 37.0375 13.8713 37.6728 13.236L40.5002 10.4085C41.1355 9.77324 42.1618 9.77324 42.7971 10.4085C43.4324 11.0439 43.4324 12.0701 42.7971 12.7054L39.9696 15.5329C39.652 15.8505 39.2366 16.0076 38.8212 16.0076Z" fill="#2E5E5E"/>
</g>
<defs>
<clipPath id="clip0_8_24775">
<rect width="51.2923" height="57.6" fill="white" transform="translate(8.31982 3.20001)"/>
</clipPath>
</defs>
</svg>
