<svg width="64" height="64" viewBox="0 0 64 64" fill="none" xmlns="http://www.w3.org/2000/svg">
<g clip-path="url(#clip0_8_24781)">
<path d="M35.6427 33.8674H29.4014V27.173C29.4014 25.6306 30.7976 24.3816 32.5221 24.3816C34.2465 24.3816 35.6427 25.6306 35.6427 27.173V33.8674Z" fill="#EF8C48"/>
<path d="M31.0665 32.3749H33.9708V27.173C33.9708 26.4579 33.318 25.8741 32.5187 25.8741C31.7193 25.8741 31.0665 26.4579 31.0665 27.173V32.3749ZM35.6428 35.3599H29.4015C28.4799 35.3599 27.7329 34.6917 27.7329 33.8674V27.173C27.7329 24.8093 29.8832 22.889 32.5221 22.889C35.1611 22.889 37.3114 24.8124 37.3114 27.173V33.8674C37.3114 34.6917 36.5644 35.3599 35.6428 35.3599Z" fill="#2E5E5E"/>
<path d="M41.8844 33.8673H35.6431V23.8226C35.6431 22.2801 37.0393 21.0311 38.7637 21.0311C40.4882 21.0311 41.8844 22.2801 41.8844 23.8226V33.8673Z" fill="#EF8C48"/>
<path d="M37.3112 32.3749H40.2155V23.8226C40.2155 23.1045 39.5627 22.5237 38.7634 22.5237C37.964 22.5237 37.3112 23.1076 37.3112 23.8226V32.3749ZM41.884 35.3599H35.6427C34.7211 35.3599 33.9741 34.6917 33.9741 33.8674V23.8226C33.9741 21.459 36.1209 19.5387 38.7634 19.5387C41.4058 19.5387 43.5526 21.4621 43.5526 23.8226V33.8674C43.5526 34.6917 42.8056 35.3599 41.884 35.3599Z" fill="#2E5E5E"/>
<path d="M48.1257 35.3599H41.8844C40.9628 35.3599 40.2158 34.6917 40.2158 33.8674V20.4723C40.2158 18.1086 42.3661 16.1884 45.0051 16.1884C47.644 16.1884 49.7943 18.1086 49.7943 20.4723V27.1917C49.7943 28.016 49.0473 28.6842 48.1257 28.6842C47.2042 28.6842 46.4572 28.016 46.4572 27.1917V20.4723C46.4572 19.7541 45.8044 19.1734 45.0051 19.1734C44.2057 19.1734 43.5529 19.7573 43.5529 20.4723V32.3749H48.1257C49.0473 32.3749 49.7943 33.0431 49.7943 33.8674C49.7943 34.6917 49.0473 35.3599 48.1257 35.3599Z" fill="#2E5E5E"/>
<path d="M38.7633 45.4858C26.6122 45.4858 16.7266 36.6432 16.7266 25.7741C16.7266 14.905 26.6122 6.06238 38.7633 6.06238C50.9145 6.06238 60.8001 14.905 60.8001 25.7741C60.8001 28.7091 60.095 31.5318 58.7092 34.1671C58.3147 34.9133 57.3234 35.2318 56.4891 34.8821C55.6548 34.5293 55.2988 33.6425 55.6897 32.8963C56.8661 30.6606 57.463 28.2658 57.463 25.7741C57.463 16.5505 49.0749 9.04739 38.7633 9.04739C28.4518 9.04739 20.0637 16.5505 20.0637 25.7741C20.0637 34.9976 28.4518 42.5008 38.7633 42.5008C42.6345 42.5008 46.3451 41.4548 49.5007 39.472C50.2547 38.9974 51.2949 39.1598 51.8255 39.8342C52.3561 40.5087 52.1746 41.4392 51.4206 41.9138C47.703 44.2493 43.3257 45.4858 38.7668 45.4858H38.7633Z" fill="#2E5E5E"/>
<path d="M19.2436 44.727C18.8178 44.727 18.3884 44.5802 18.0638 44.2898C17.411 43.7059 17.411 42.763 18.0638 42.1791L23.1078 37.6672C23.7606 37.0833 24.8148 37.0833 25.4676 37.6672C26.1203 38.2511 26.1203 39.1941 25.4676 39.778L20.4235 44.2898C20.0989 44.5802 19.6695 44.727 19.2436 44.727Z" fill="#2E5E5E"/>
<mask id="mask0_8_24781" style="mask-type:luminance" maskUnits="userSpaceOnUse" x="3" y="6" width="58" height="52">
<path d="M60.8002 6.06232H3.2002V57.585H60.8002V6.06232Z" fill="white"/>
</mask>
<g mask="url(#mask0_8_24781)">
<path d="M10.9948 56.0927L4.86865 50.6128L13.8816 42.5508C15.5746 41.0364 18.3148 41.0364 20.0078 42.5508C21.7008 44.0652 21.7008 46.5163 20.0078 48.0306L10.9948 56.0927Z" fill="#EF8C48"/>
<path d="M7.22836 50.6129L10.9948 53.982L18.8279 46.9753C19.8682 46.048 19.8682 44.5336 18.8279 43.6062C18.3253 43.1566 17.6551 42.9099 16.943 42.9099C16.2309 42.9099 15.5641 43.1566 15.058 43.6094L7.22487 50.616L7.22836 50.6129ZM10.9948 57.5852C10.569 57.5852 10.1396 57.4385 9.81496 57.1481L3.68879 51.6683C3.03603 51.0844 3.03603 50.1414 3.68879 49.5575L12.7018 41.4955C13.8362 40.4807 15.3407 39.9249 16.943 39.9249C18.5452 39.9249 20.0532 40.4838 21.1842 41.4955C23.5229 43.5875 23.5229 46.994 21.1842 49.086L12.1712 57.1481C11.8465 57.4385 11.4172 57.5852 10.9913 57.5852H10.9948Z" fill="#2E5E5E"/>
</g>
</g>
<defs>
<clipPath id="clip0_8_24781">
<rect width="57.6" height="51.5227" fill="white" transform="translate(3.2002 6.06232)"/>
</clipPath>
</defs>
</svg>
